/* XPM */
static char *bd2aa7ca335c41b2f9e2f57658865cd2JlSWv94KQUxySgMu[] = {
/* columns rows colors chars-per-pixel */
"64 64 253 2 ",
"   c #361B1C",
".  c #2B181B",
"X  c #142C1D",
"o  c #392A1C",
"O  c #351B24",
"+  c #3A1E22",
"@  c #2B1A24",
"#  c #163425",
"$  c #3B2627",
"%  c #312E2D",
"&  c #4C3E0C",
"*  c #5B3515",
"=  c #5B361B",
"-  c #553A1C",
";  c #5C391C",
":  c #563818",
">  c #4B3C12",
",  c #623919",
"<  c #462A2A",
"1  c #522E28",
"2  c #48352A",
"3  c #543A22",
"4  c #5C3B22",
"5  c #533A2D",
"6  c #563827",
"7  c #452E33",
"8  c #4D3533",
"9  c #4C3A35",
"0  c #4C3B39",
"q  c #473739",
"w  c #523634",
"e  c #533A35",
"r  c #533B3A",
"t  c #573B37",
"y  c #532F31",
"u  c #623C21",
"i  c #613D32",
"p  c #2E523C",
"a  c #385F18",
"s  c #4A4414",
"d  c #4D4512",
"f  c #69411B",
"g  c #4C701E",
"h  c #494337",
"j  c #5D423D",
"k  c #584438",
"l  c #515031",
"z  c #6A4729",
"x  c #744D2D",
"c  c #754A29",
"v  c #7B562E",
"b  c #63453C",
"n  c #664836",
"m  c #69553A",
"M  c #7D5533",
"N  c #7D5935",
"B  c #7C563A",
"V  c #7D593B",
"C  c #75573A",
"Z  c #714C34",
"A  c #5C6824",
"S  c #53702F",
"D  c #6B6627",
"F  c #776235",
"G  c #767C3A",
"H  c #6A6C33",
"J  c #573E42",
"K  c #4D3B43",
"L  c #395144",
"P  c #346C52",
"I  c #4A4547",
"U  c #5C4343",
"Y  c #574845",
"T  c #575842",
"R  c #585758",
"E  c #54544F",
"W  c #644944",
"Q  c #685749",
"!  c #7D5A43",
"~  c #775A46",
"^  c #655956",
"/  c #725C58",
"(  c #654D52",
")  c #4A685A",
"_  c #4D6D53",
"`  c #7A634B",
"'  c #686656",
"]  c #786857",
"[  c #6B7B5A",
"{  c #777559",
"}  c #6D6E49",
"|  c #555D69",
" . c #6F5D63",
".. c #496862",
"X. c #487965",
"o. c #4E6274",
"O. c #556F68",
"+. c #776B66",
"@. c #7A7468",
"#. c #777575",
"$. c #6A6C6A",
"%. c #83552E",
"&. c #85582E",
"*. c #825634",
"=. c #835935",
"-. c #82563A",
";. c #825A3A",
":. c #8A5D3C",
">. c #885B34",
",. c #8D623E",
"<. c #89653B",
"1. c #91643E",
"2. c #95683E",
"3. c #835B41",
"4. c #805E52",
"5. c #8C6443",
"6. c #88664A",
"7. c #926543",
"8. c #946945",
"9. c #9C6C46",
"0. c #946B4A",
"q. c #9B6E49",
"w. c #976446",
"e. c #9D734C",
"r. c #9A784A",
"t. c #856C58",
"y. c #926D52",
"u. c #8A745A",
"i. c #957454",
"p. c #9D7552",
"a. c #9D7954",
"s. c #94755B",
"d. c #9C7A5B",
"f. c #98775A",
"g. c #8F7748",
"h. c #A46F4A",
"j. c #A47346",
"k. c #A3744C",
"l. c #A9744C",
"z. c #A8784B",
"x. c #A27552",
"c. c #AA7452",
"v. c #A47953",
"b. c #AB7B54",
"n. c #A77C5A",
"m. c #B27E55",
"M. c #B77D4E",
"N. c #847363",
"B. c #887768",
"V. c #967B65",
"C. c #867873",
"Z. c #8C766E",
"A. c #A37E63",
"S. c #55A51D",
"D. c #4EA216",
"F. c #5A992A",
"G. c #65843D",
"H. c #78863B",
"J. c #6C9533",
"K. c #5AA328",
"L. c #6BAD3B",
"P. c #67A735",
"I. c #72AA3C",
"U. c #6CB23C",
"Y. c #68B239",
"T. c #74B43C",
"R. c #61A22C",
"E. c #39875C",
"W. c #399259",
"Q. c #318C55",
"!. c #2D8962",
"~. c #3C8663",
"^. c #388B66",
"/. c #379369",
"(. c #3C9272",
"). c #4B8D58",
"_. c #6A8846",
"`. c #768747",
"'. c #78964B",
"]. c #7A9855",
"[. c #6F9550",
"{. c #6CAC42",
"}. c #6CA848",
"|. c #72AC43",
" X c #77A649",
".X c #6DB342",
"XX c #60B34B",
"oX c #73B442",
"OX c #7CB54C",
"+X c #75BC4C",
"@X c #7BBB4B",
"#X c #78B845",
"$X c #78A655",
"%X c #7ABA54",
"&X c #458767",
"*X c #489462",
"=X c #58896A",
"-X c #6F916B",
";X c #6EB853",
":X c #7DC255",
">X c #7AC34A",
",X c #8A8D47",
"<X c #8A8F52",
"1X c #AA815B",
"2X c #B4835A",
"3X c #B58356",
"4X c #83BB4C",
"5X c #84B74D",
"6X c #84A959",
"7X c #87B857",
"8X c #8EB356",
"9X c #9B836B",
"0X c #988777",
"qX c #999479",
"wX c #8A8C6E",
"eX c #A88668",
"rX c #BD8D64",
"tX c #B88C69",
"yX c #BD916C",
"uX c #BA9465",
"iX c #A58C78",
"pX c #B99577",
"aX c #B38F74",
"sX c #87B766",
"dX c #95B66B",
"fX c #94A971",
"gX c #A2B56F",
"hX c #C78C5D",
"jX c #CE915F",
"kX c #C38E64",
"lX c #C68F66",
"zX c #C49166",
"xX c #C3916A",
"cX c #CB9365",
"vX c #C49775",
"bX c #83C24C",
"nX c #88C34F",
"mX c #87C558",
"MX c #92CB5C",
"NX c #8AC961",
"BX c #96C467",
"VX c #9BD36D",
"CX c #A5D675",
"ZX c #A2D76D",
"AX c #989486",
"SX c #AB9583",
"DX c #A7918D",
"FX c #B7A597",
"GX c #B2A787",
"HX c #A8A2A4",
"JX c #C5AB94",
"KX c #CC9F80",
"LX c #A9D284",
/* pixels */
"qXm 2 h h Q { ' FX0XAXZ.B.' B.JXFXGX0XSXZ.N.DX0XC.B.U ] qX] l wXGXqX] Q ^ ' +.^ ' E ' k ' l ^ Q U FXFXZ.wXQ h 9 (  .' ] ] b < AX",
"AXHXAXwX@.l h ' AXAX0XAX@.l qXAXqXqXwXwXB.' { { ] { wXGXwX[ H T GXGXqXwX' ' T m l l l p T ' { Q l wXqX} } m l H @.{ Q l m p o +.",
"-XAX-X-X=X_ L ) =X-X=X=X=Xp =X-X6X].].$X].G.S _.S '.sXgX6X<X[.H dXgXgXfX6X<X<X].S S g G [.$X<X].G._.'.} _.'.G._.].-X[.S _.S S S ",
"-X=X&X&X~.^.&X&X&XX.&X^.E.E._ =XsX7XsXmX7X$X}.$X X%X|. X7X7X$X6X7X8X8X8X8XBX8X7X7X;X$X7X7X X$X X X}. X}. X X X}.$X%X7X X7X6X].a ",
"..&XX.(.^.!.~.~.(.!.^.(.!.^.&X).%X7X7X7X%X+X{.{.+X}.{.|.OX5X7X7X%X7X7XnXnXbXbX4XoXOX%X5X7X|.#X|.L.oX{.|.P.J.I.{.{..X#X#X7X5X6Xg ",
"L X.&X^././.^.^.X.!./.!./.^.*X*X:X7XmXmXmX:X{.{.Y.{.oXoXOXOX5XOX%X:XnXbXnXbXbX4X+X:X@X#XoXL.U.P.L.oXP.I.L.L.L.P.L..X#XT.T.5X6Xa ",
"p X.^.!.!.!.(.&X(.^.(.!.(./.!.*X:XNX4XbX@X+XU.L.L.Y.U.L.OX+X#X@X+X;X%X>X>X:X>X@X>X+XT.bX#XU.Y.T.Y.U.L.|.I.I.P.P.P..X>X>XoX5X$Xa ",
"p X.^.!./.!.E.&X!.(.~.^.~.&X/.*X:XbXbXmXnXoXU.I.Y.Y.U.U.+X#X+X+X;X:XmXmXmX%XmX7X+X#X4X#X>XY.T.Y..XP.L.U.R.I.P.Y.Y.Y.T.#X#X7X$Xa ",
"X.&X^.!./.E.&X&XX.P P &X~.^./.).%X%X%X+X#XoXT.T.T.T.T.I.oXoXoXoX#X XJ.`.'.`.[. X7X%X4XnX>X#XbX#X5X4X5XI.P.R.Y.R.P.Y.T.>X>XOXsXa ",
"=X&X^.Q.W.*X).&X!.P # P ~.^.W.W.XX.X{.{.oX|.T.oXT.#XT.T.oXL.{.|.L.g d s s > s G.BXmXMXMXMXMXVXVXZXCXBXOXR.F.K.K.S.XX>X>X@X7XsXa ",
"=X&X/.W.W.*X*X*X/.p X X./.!.Q.W.XXY.Y.L.{.+X%X%X4X4X4XT.L.I.L.I.5XA d > u = : G BXNXNXMXNXVXZXZXCXCXCX5XR.R.K.K.K..X:XmXNXNX6Xa ",
"&XP ^.Q.W.).*XP ^.P # P ~.Q.W.W.XXY.Y.L.L..XOXOX4X4XOXT.I.L.L.L.I.A d * u u & G BXNXNXMXNXVXZXCXCXCXZXI.F.K.S.K.K.XX>XnX5X7XBX_.",
"p X.&XW.Q.W.*X).X.P X ) ^./.^.).{.T.T.T.L..X+X+X#X+X#X.XY.oXoX{.6XA d * * * & G BXNXMXmXMXVXCXLXLXLXCXoXS.S.D.S.K.#XnXnX5X5XBXG.",
") X.&X*XE.*X*X&XX.P # ) &X/.W.). XI.I.I.L.oX>X#X#X+X+X+X}.{.$X$X$XH d : * & d G dXBXBXBXBXVXLXLXLXLXCXOXK.K.S.K.R. X5X4X8XBX8Xg ",
"HXE p p ).)._ p L p % | X.X._ _ `.} H.H.G.J.5X5X%X%X%X$XG.).-X=X-X} l z z z z D `.`.`.H.`.<XfXfXfXfXfX}.J.K.R.R.'.J.J.H.G H.} '.",
"AX. % % X._ p X X @ K R P X.p 2 F N F D D J.5XnX7XNX:X[._ E ) ) R T ~ ! V B N l s s & * s Q @.#.@.[ [ [.|.|.|.I.$XA d o s s s u.",
" .O . % ~.X.L @ @ 7 K | ....L r ~ B <.N D H.nXbX:X:XsX-X_ O.o.o.R ^ / ~ B V C z - - - - 3 Q @.#.#.$.=X[.}.P.L.|.6XD > - ; 4 s 6 ",
"J O $ % X...L @ O 7 7 | P X.L r ! -.;.v D H.7XmX:X:XsX-X_ ..o.o.| ^ ~ B ;.B B n 3 4 = = 3 Q #.#.#.#.-X[.;XY.L.L.I.A > : u 4 3 - ",
"( +   % O.O.I @ O O 7 R ..X.I j ~ B -.v D H.8XmXmX:XsX$X_ ) o.o.$.Q ~ *.*.%.B Z 3 4 4 = - Q @.#.#.@.[ [.}.oXI.I.6XA > - 3 3 3 m ",
"/ + . % O.o.K O O $ K R ....I k ! M *.v <.,X8XsXsXsXdXwXQ R | | R Q 3.&.&.%.*.z = * * * = C N.C.@.u.{ `.,X,X5X X,XA d - - 3 3 } ",
"r < < % R R I < < 7 J K L E 0 i w.1.w.1.<.2.,X,X'.,X<X} k Y Y E k ` i.j.h.j.h.:.z z z u z 6.V.V.eX9XeX<Xr.,X,X,X,XD z , u Z n B ",
"r 9 9 0 L Y J w w r J + $ h r i h.c.c.h.j.<.F D D D C Z 3 w w e k ` yXkXhXhXhXq.C B B -.*.x.yXpXaXyXtXn.r.r.r.,Xr.<.>.*.-.3.Z ! ",
"/ k 8 0 q U J J J J U     2 w n p.h.h.c.c.8.v F v F C c = 4 6 5 6 6.yXzXjXjXkXe.V V -.=.*.c.yXxXxXxXlXm.z.k.r.r.r.<.*.;.-.B ! ! ",
"+.9 8 w J J J w e r ( + $ 9 w n p.x.j.x.b.1.N =.N N B x = u - - 3 5.xXzXhXlXkXk.;.B ;.*.*.x.yXxXxXkXlXm.j.z.r.r.r.<.%.*.*.3.3.i ",
"9 2 h e w i U 8 r r (   + i 6 n f.r.r.x.h.5.V B V V V c ; * : - - 3.xXhXcXhXrXv.V V ;.=.*.z.lXuXuXuXrXm.x.p.p.a.a.<.N N N V C z ",
"Y 2 9 8 t J W r q r t < + t t i y.r.r.a.p.5.;.B ;.;.B c , * : : ; 5.vXkXzXxXyXp.;.B V M >.k.kXuXuXuXrXm.c.x.p.p.a.<.%.*.N N V m ",
"@.h e 9 w w r 8 9 9 1 < < y 2 z 6.<.1.,.5.7.5.w.6.w.7.:.*.v N M M ;.7.,.>.1.,.,.5.6.5.5.1.8.j.j.2.j.h.w.w.5.7.5.5.1.2.7.7.5.6.6.",
"B.9 9 8 r e e 9 7 2   1 y w 9 k N =.=.N *.5.h.x.c.h.x.x.e.k.k.e.p.v * , , * * M p.p.a.p.e.7.*.%.&.&.>.*.-.-.;.=.=.7.k.l.x.p.f.f.",
"C.2 9 8 r 9 0 0 9 <   1 y w 9 k C =.-.*.*.7.x.x.x.x.x.x.x.x.x.x.x.M * * * , ; x p.x.x.x.k.,.M =.F N =.=.-.-.=.B *.9.h.c.x.x.d.V.",
"B.r e 8 9 9 9 9 q 2   y w w 9 t ! ;.;.*.=.1.e.j.h.x.k.x.e.x.x.h.q.v = - - ; : M p.k.j.x.x.,.B ;.=.=.=.;.;.=.N M *.w.c.c.x.p.a.i.",
"' r w w q 0 h 0 w y   y r 9 9 t ! -.-.*.v <.j.r.x.k.x.x.x.x.x.k.x.*.= = 3 : : ;.x.k.j.c.e.5.B M B -.-.V ;.V N N *.2.c.c.x.a.i.F ",
"( r 8 e 9 9 9 9 8 <   1 w 9 9 t ! M -.*.&.1.z.j.k.k.j.p.e.x.x.x.q.v * - 4 = = M z.k.j.z.k.5.;.-.-.-.-.-.B N N =.*.7.c.x.x.a.i.F ",
"@.9 q r r w e b i 5 1 w w j 5 t 0.5.8.8.2.j.2Xm.3X2X2Xv.,.5.5.5.5.<.;.;.;.:.:.h.m.2XrX3X2Xe.2.w.w.8.8.8.7.5.0.8.0.:.7.5.5.5.` C ",
"Z.e 8 0 w w t W W t 8 w t b 5 z f.e.k.k.k.m.lXlXzXzXxXb.M B M M C 5.p.x.x.k.h.m.lXxXxXrXzXb.k.k.j.j.r.e.p.p.p.p.x.3.-.;.B C ! u.",
"N.h 8 w r w t n W b 8 w r W 5 n p.e.x.e.j.3XlXkXzXzXxXn.%.=.-.;.v 5.v.v.k.k.h.m.lXkXxXkXxXb.k.k.k.k.j.x.v.v.x.x.x.:.;.;.V B F s.",
"~ 2 r w r w t W b U 8 0 e W t n a.x.v.k.k.m.kXxXzXxXrXm.%.*.*.M ;.7.p.e.q.k.k.m.xXxXxXxXxX3Xz.z.k.e.k.x.k.p.p.k.c.7.*.*.B B 3.6.",
"` 2 e 9 8 r r b U Y 9 0 J W w b f.h.x.h.x.m.xXxXkXxXyXm.%.*.=.>.;.w.x.p.a.v.a.1XyXxXlXlXxXb.k.e.z.k.x.x.x.e.x.x.j.>.*.*.:.B x C ",
"Z.k e r r 9 e U U k 0 0 J U w b x.c.x.p.x.m.tXxXyXxXyXv.>.%.%.*.-.3.d.d.f.s.i.1XyXxXxXlXcX1Xk.k.p.e.e.k.v.k.k.z.l.2.&.%.*.*.3.A.",
"SXb t r w 8 e h r Y Y 0 q 7 w i 3.1.:.5.7.:.:.:.:.:.5.:.7.1.1.0.w.y.s.u.u.u.u.9X1Xm.m.m.2X9.,.5.7.,.7.q.e.k.k.r.j.j.k.k.x.x.n.vX",
"SXb W W r 9 9 9 q Y ^ K 7 O < b 3.>.-.-.-.z , * , * , c p.x.x.p.d.s.u.N.@.N.{ u.p.k.l.h.z.:.-.-.*.*.*.8.p.v.k.j.j.3XkXxXxXlXvXJX",
"0Xb W W w q 8 9 0 I ^ K 7 O < i -.-.-.;.;.z : * ; = = x p.e.x.x.V.t.N.C.#.#.+.B.p.e.j.l.j.1.-.B *.-.*.7.e.e.z.k.j.2XzXyXxXyXyXvX",
"iXQ W t r r 9 q q Y ^ K 7 O w 5 ! -.B B B Z 4 u , = , x x.p.x.s.f.N.N.#.#.#.#.N.f.r.j.z.k.7.-.3.;.*.*.8.x.k.r.e.k.3XzXxXrXyXvXKX",
"t.b Q J r r 8 9 q Y  .K 7 . 8 t ! B -.B C z = * = * * x i.x.a.y.s.N.C.+.#.#.@.N.a.r.j.z.h.:.B B ;.*.*.0.x.x.z.k.v.3XxXxXrXxXyXeX",
"/ n W U q 8 9 0 q J ( K 7 O 8 t B -.3.3.B Z u * * ; ; x 0.a.n.f.V.N.B.+.#.#.@.B.a.z.j.j.h.5.3.! -.*.;.5.p.p.c.m.k.1XuXxXyXrXtXtX",
"V.t r w $ 7 w r 0 9 $ q q 7 8 5 V V ;.;.B ;.5.5.5.5.3.5.3.:.;.;.3.m k j T b b ~ f.r.k.k.k.9.0.0.0.q.0.M z z u u c 7.n.c.n.v.v.yX",
"0X5 8 7 O < r 8 0 $ @ q r 8 w z ! N N N *.5.p.x.e.e.x.7.>.;.B ;.M z - - 5 3 - C p.x.k.l.z.k.e.a.j.v.p.x = , , , * :.x.e.v.e.r.pX",
"0X9 w 7 O < r w 8 <   q w 7 5 k C B ;.N =.1.e.e.v.v.v.8.*.=.v M B f * * ; * ; v p.x.h.k.x.k.e.a.p.n.p.x * = = = * *.p.p.v.e.r.1X",
"B.e q < O < 8 r 8 < O 7 r 8 t 5 B N =.=.v ,.k.k.k.k.x.8.*.;.B ;.*.c , * ; * * v x.x.c.h.l.x.r.v.e.h.p.x = = = u , ;.x.k.r.v.a.1X",
"B.r 0 7   $ r r 8 < O 7 K w w t ! B ;.M *.,.p.k.x.k.x.8.;.B =.;.3.z = = = - u x k.k.l.j.x.e.v.v.k.c.k.x : 4 3 3 = -.c.l.h.k.e.1X",
"N.t r 2 . 7 9 e w 7 + 7 w w 5 i 3.;.=.=.=.8.q.k.e.p.q.0.:.;.V =.-.z u ; 4 4 u M k.l.z.z.v.e.r.q.h.h.q.x u d 3 3 , ;.c.h.j.k.r.9X",
"V.b r 0 < 8 t b b r < q q w i B x.b.x.z.z.q.,.1.,.,.5.5.1.7.7.7.w.:.:.;.3.3.;.q.2X3X3X3X3X9.5.3.5.5.5.M z Z n Z Z y.tXrX2XeXeXeX",
"t.b b U t w 5 W W i 8 0 w r i ! rXcXzXxXyXx.=.M *.*.*.,.e.j.l.l.l.h.x.e.x.p.k.2XlXkXcXzXhX9.>.*.~ B ;.N N N C V B n.xXtXxXyXaXi.",
"i i ~ U w t t n b b 8 9 e 5 n ! xXlXkXxXxXk.*.=.=.V =.7.e.z.j.j.j.j.z.j.e.k.k.3XcXkXlXcXlXh.*.*.V B B >.&.%.*.=.*.b.xXkXxXuXuXx ",
"~ W W t w w t b b b 9 k 8 9 n ! kXcXhXrXyXp.;.=.V ;.B :.x.z.h.k.j.j.l.k.e.v.k.1XkXhXlXlXxXq.*.-.! B *.&.&.&.&.*.*.m.xXzXcXxXuXf ",
"4.W W J r w t b b b w e w w j ! yXxXxXxXxXx.*.B B *.B <.p.x.k.x.k.k.z.k.x.x.x.1XxXkXlXlXxXq.*.;.B N *.*.&.*.=.=.M c.kXhXcXcXuX, ",
"i W W W r 8 t W b W 8 9 8 w b ~ yXzXxXxXtXe.>.>.*.=.=.,.p.p.p.p.v.e.k.p.v.x.k.1XrXxXxXkXrX9.*.=.*.=.*.=.N C B ~ 3.x.kXzXzX2XuXf ",
"2 9 0 I ( J 9 e e w e 0 r J < 4 x.c.b.z.x.m.m.3X3XrXtXk.<.;.;.;.=.8.p.q.x.x.x.x.z.z.k.k.b.r.e.q.0.p.y.t.t.+.+.#.t.f.p.z.c.k.a.4 ",
"2 q q I R Y q r 8 e e q J J + 1 f.q.h.k.j.3XhXjXcXhXkXb.v N V M =.8.x.x.x.x.c.j.k.z.z.z.j.e.e.k.n.p.d.V.+.C.#.$.@.u.a.x.k.a.f.4 ",
"o q K I R I q 0 8 w 9 9 t W + 1 n.h.c.l.l.M.jXhXjXhXcXm.&.*.;.;.=.:.k.m.k.q.z.z.z.j.j.j.j.z.j.z.h.p.f.N.+.#.#.#.@.B.x.e.e.v.i.` ",
"o % K K | I q r 9 9 e 9 J W   1 s.p.z.k.l.M.jXjXhXhXzXb.*.*.B B *.8.x.k.h.k.x.j.c.j.j.e.k.b.k.r.e.p.f.N.C.#.#.#.@.Z.f.e.v.v.f.V.",
"2 h 0 I  .K K 8 9 9 9 9 J W + 1 s.n.8.x.e.2XkXcXzXcXxX1X*.B B B N g.i.r.x.v.x.x.x.r.n.x.p.p.x.e.v.i.d.B.C. .#.#.@.B.s.a.v.a.f.6.",
"o h h I R I I J l k k k J W < < u.f.s.i.d.1XyXtXaXeXtXeX! C C C C t.1X1Xn.d.a.a.i.y.d.V.d.y.d.a.i.d.u.6.N.+.#.C.B.u.s.1Xy.d.d.k ",
"2 k Y E  .$.B.N.u.Z.0X@.t.+.Q i t.V.iXu.t.V.JXiXiXV.V.~ m m 3 ` t.eXpXpXaXpXpX9Xs.t.B.0X9X` V.B.t.B.t.] AXC.$.wXwX+.t.i.6.s.] 3 ",
"o o $ 0 ^ C.0XB.SXFXFXC.B.+./ 1 SXFXJXaXQ N.FXSXqXB.] 5 m Q 3 SXiX{ 9XJXGXiXiXiXV.t.t.V.DXQ t.] ] ] +.Z.FXC. .$.#.] { ` ] ` k $ "
};
