/* XPM */
static char *_dc6a6c543e04ceefa5a95faf57239fe70lsIFi1X7HuAgL5[] = {
/* columns rows colors chars-per-pixel */
"64 64 237 2 ",
"   c #171B18",
".  c #0B1712",
"X  c #211D1A",
"o  c #19241A",
"O  c #0E251B",
"+  c #3C2D1D",
"@  c #33291D",
"#  c #2E2A1C",
"$  c #1B1D21",
"%  c #192B24",
"&  c #1D3029",
"*  c #252B26",
"=  c #3B2E23",
"-  c #342E20",
";  c #27362B",
":  c #3D3225",
">  c #383729",
",  c #293A35",
"<  c #383C35",
"1  c #412F23",
"2  c #433424",
"3  c #423529",
"4  c #443A2C",
"5  c #4A3C2C",
"6  c #473825",
"7  c #4B3D32",
"8  c #483F33",
"9  c #503F2F",
"0  c #402F1D",
"q  c #35412E",
"w  c #2B4236",
"e  c #3D4C3C",
"r  c #384638",
"t  c #3F543D",
"y  c #4D4234",
"u  c #4D4339",
"i  c #454939",
"p  c #534435",
"a  c #53463A",
"s  c #554B3B",
"d  c #5A4C3D",
"f  c #554737",
"g  c #415C3E",
"h  c #46543C",
"j  c #4F4633",
"k  c #62523F",
"l  c #303F42",
"z  c #394945",
"x  c #3C5345",
"c  c #494C46",
"v  c #5C4E41",
"b  c #554C40",
"n  c #4D5A44",
"m  c #4C5B4C",
"M  c #455548",
"N  c #5D5244",
"B  c #5D5349",
"V  c #535B4C",
"C  c #5C5C4C",
"Z  c #545746",
"A  c #495A55",
"S  c #585D55",
"D  c #624E43",
"F  c #635444",
"G  c #63564A",
"H  c #655A4B",
"J  c #6B5C4D",
"K  c #685848",
"L  c #715E4B",
"P  c #655C51",
"I  c #6B5E52",
"U  c #6E5F5A",
"Y  c #715F54",
"T  c #4D6849",
"R  c #54614C",
"E  c #5A664D",
"W  c #57764C",
"Q  c #4D6254",
"!  c #4D6559",
"~  c #556454",
"^  c #5C6452",
"/  c #576B58",
"(  c #5B7255",
")  c #597558",
"_  c #69624F",
"`  c #646354",
"'  c #6D6253",
"]  c #6D655B",
"[  c #6C6C5C",
"{  c #656858",
"}  c #736454",
"|  c #756956",
" . c #746559",
".. c #756A5B",
"X. c #7B6C5C",
"o. c #7B6856",
"O. c #64765D",
"+. c #7D715E",
"@. c #75634F",
"#. c #5A6A62",
"$. c #5E7762",
"%. c #746C62",
"&. c #7B6E62",
"*. c #677663",
"=. c #747463",
"-. c #7D7263",
";. c #78796A",
":. c #71716B",
">. c #826E5D",
",. c #82725E",
"<. c #806E63",
"1. c #827464",
"2. c #847A65",
"3. c #8A7966",
"4. c #83766A",
"5. c #857A6B",
"6. c #8B7C6C",
"7. c #8A7769",
"8. c #907E6C",
"9. c #857D71",
"0. c #8C7E71",
"q. c #887E7C",
"w. c #917E72",
"e. c #63835B",
"r. c #6A8465",
"t. c #698665",
"y. c #75886C",
"u. c #798A78",
"i. c #7C9B74",
"p. c #7B9678",
"a. c #718E6C",
"s. c #7DA078",
"d. c #8C826E",
"f. c #87806E",
"g. c #92816E",
"h. c #848273",
"j. c #8D8273",
"k. c #8E8479",
"l. c #8D897B",
"z. c #85897A",
"x. c #938474",
"c. c #988776",
"v. c #948976",
"b. c #9A8A76",
"n. c #948679",
"m. c #99867A",
"M. c #958A7B",
"N. c #9B8B7B",
"B. c #84997B",
"V. c #9B917D",
"C. c #92937C",
"Z. c #A08E7E",
"A. c #A1917E",
"S. c #85A37D",
"D. c #88A77E",
"F. c #7F9080",
"G. c #958B82",
"H. c #9C8E82",
"J. c #958B8A",
"K. c #889C87",
"L. c #9D9183",
"P. c #9B9888",
"I. c #928C8C",
"U. c #A28E83",
"Y. c #A98E87",
"T. c #A39483",
"R. c #A99683",
"E. c #A49985",
"W. c #AA9A85",
"Q. c #A4958A",
"!. c #A59A8A",
"~. c #AB9C8B",
"^. c #A99689",
"/. c #B09E8E",
"(. c #B29E86",
"). c #AD9E92",
"_. c #A79D91",
"`. c #B19E92",
"'. c #8AA885",
"]. c #91AB8B",
"[. c #94B38C",
"{. c #90B087",
"}. c #94AA97",
"|. c #9CBA93",
" X c #9EBC9A",
".X c #98B794",
"XX c #8EAB8C",
"oX c #ADA18D",
"OX c #ADAC8E",
"+X c #B3A28D",
"@X c #B7A68C",
"#X c #ADA292",
"$X c #ABAB97",
"%X c #B4A494",
"&X c #B9A795",
"*X c #B5A995",
"=X c #BBAA94",
"-X c #B5A799",
";X c #B5AA9A",
":X c #BBAC9B",
">X c #B8A698",
",X c #A7B89A",
"<X c #BEB19D",
"1X c #BBB89B",
"2X c #BBB38F",
"3X c #BDAEA1",
"4X c #B7AEA1",
"5X c #BDB2A2",
"6X c #B9BAA5",
"7X c #A1B7A2",
"8X c #C0AF9D",
"9X c #C2B39C",
"0X c #C3B3A3",
"qX c #C9B7A6",
"wX c #C6B8A6",
"eX c #CABAA6",
"rX c #CBBBAB",
"tX c #C7B7A9",
"yX c #D1BDAC",
"uX c #A2C09A",
"iX c #B0C5A9",
"pX c #C9C8A7",
"aX c #C7C8B4",
"sX c #D3C3B3",
"dX c #DACABB",
"fX c #DAD9B7",
"gX c #D2C9A8",
"hX c #E6E3BF",
"jX c #DDDFC7",
"kX c #CFDBC7",
"lX c #DDE4C3",
"zX c #E4E4C3",
"xX c #ECEACB",
"cX c #E7E6C9",
"vX c #F3F5D7",
"bX c #EBEFD3",
"nX c #FFFFE8",
/* pixels */
"b.K 5 2 7 P  .P %XN.c.b.7.} 3.;X-X#Xn.H.4.2.b.v.d.,.d | n.X.a 3.&Xb.>.k K ' ' _ H B H Z ' a  .I v ).-X<.q.U 7 7 K I ' .. .v 3 H.",
"W.&XT.x.4.G a P Q.m.Z.w.<.d U.E.n.H.N.n.x.} +.+.| X.v.*XN.-.J ' =X@XA.g.,.' H G d y j s N ' &.I a 0.H. .U P D P <.&.d d H 5 : &.",
"x.R.&Xx.-.b 8 H c.6.6.x.K + J g.c.1.>.w.} f F ' | M.*X<XT.j. .D @X@X@XA.H.x.j.4.` N 8 _ 5.H.0.5. .F  .&.4.w.9. .0.N.j...<.P a 7 ",
"g.x.j.6.-.M.4X4.G X.} 1.N.N.f f x.x.1.o.J 3.2.5 v.:XoXN.H.n.' D W.8X=Xb.0.-.4...' ' 1.P.5...9.4.I 3 &.M.4.&.&.' 7 } !.~.Q.m.U b ",
"J 8. .J 9.4XH.n.7.d 6.&X=X/.x.8.k 7.7.o.x.+XeXg.A.9X#Xx.6.5. .F Z.=X@XZ.N.x.9.&.' ' L.!.L.5.1.} X.f j.#XH.4.&.' 6 d.aXrX-X%X4.v ",
"f 7. ..._.!.H.x.X.o.R.&X`.Z.N.6.Y f D w.%X&XwX%XV.<X:XQ.0.-. .F Z.+XR.x.x.4.%.G f > #X#XT.N.n.4.| F oX-XH.9.X.J p :XsXwX3X;Xx.a ",
"0 K I B L.l.4.4.} Z.0X8XA.c.N.<.K 5 <.>X=X%X@X/.x.-X&XE.H.9.&.F >.W.Z.3. .X. .G p v <X~.!.L.x.N...F %XoXc.&.G y j.<X0X5X0XL.&.4 ",
"p c.H.c. .-.9.5.} ^.rX%X(.N.x.X.K k /.&X:XR.N.Z.3.R.T.N.c.n.0.F k A.w.<.&.N.J.6.y ..-XT.v.v.m.1.} f !.E.0. .D p rX-X:X*X#Xx.&.1 ",
"4.#X~.L.T.9.f H K 0X0X&XU.c.<.o.F U.W.~.:X/.T.c.x.7.:XN.c.m.5.K 0 k ,.c.).Q.G.<.4 o.3XQ.N.N.x.1.k y J ' I p + x.aX=X!.N.V.2.F = ",
"x.~.#XQ.0...} 1.X.qX9XN.b.1.} K 1.N.Z.^./.T.Z.N.0.o.6.c.n.5.o.d k 8.Z.W.Y.G.4.G 3 v c.T.x.c.x.L f K E.6.-.G d N.0X~.T.b.x._ d @ ",
"3.N.~.x.%.&.L.j.c.8XR.b.x.&.}  .c.n.N.~.E.c.x.6.>.X.f K 1.o.H ,.~.%XA.E.H.w.&.D X.6.X.5.c.c.X.D 1.} T.w.0.Y K ~.:X~.V.b.w.} Y f ",
"X.4.x.1.H H x.X.^.qXN.c.N...G H.n.M.c.N.m.x.w.X.L } + @ 2 1 J <X=X/.A.T.w.<.D U H.5.1.D 6.o.H <.6.X.x.0.<.} H N.&X:XN.c.} ^.%X1.",
"6 } X.o.' X.6.K tXW.N.N.x.' &.9.-.j.x.v.v.x.-._  .K ~.&Xb.3.K b.+XV.A.V.3.I 7 H.Z.x.X.F 5 d n.~.A.x.g.E.4.<.v <.T.R.b.x.&XU.N. .",
"K Z./.=X&X~.N.X.rXW.N.x.} u H ] ] 1.j.j.x.1.' F K A.3X%XR.+X%X8.A.b.b.3.X.I J Q.m.w.w.Y 1 + n.).N.x.<.~.m.0.D Y N.1.2.&XT.N.7.H ",
"tXeX:X:Xx.<.6.b.:XR.N.3.7 : u B ' ] ......} J G 3.*X%XR.b.c.W.+Xg.b.b.g.o.D 6.m.m.m.N.K o.8XU.n.<.3.} x.n.w.X.J } L X./.>Xm.<.1.",
"%XW.N.x.<.6.c.J Z.N.} 3 G ] P u 8 f G I H J N y x.N.N.v.x.N.N.+Xg.A.v.d...s `.n.m.n.X.Y ~.8XrXsXtXU.F X.U.0.4.L f 5.<.} T.x.U 0.",
"3.d.5.2. .1. .J d.} s 1.n.9.G.H.U.^.Z.Z.w.<.7 D N.m.c.c.N.x.N.T.!.=.c.1.} j.~.N.x.A.} _ ~.8X/.qXeX>Xm.Y 6.N.5.| f F 5.' I X. .a ",
"s } ' X.o.a K `.oXf.@.2.j.-.4.m.Z.R.U.^.tXyX<.Y x.v.b.m.N.N.m.x.V.H | 7.d )./.8.N.x.| | T.Z.~.R.%X>Xc.} F 3.6.X.X.H -.3.d J  .a ",
"' j j  .3XU.X.w.f.G h.oXx.5.M.n.c.~.%X~.5XyXG.o.x.v.N.v.x.0.n.H.M.f.s D 9 >XH.m.x.V.` N w.N.w.m.N.U.N.7.6 d j.oXE.d.2.v...p G G ",
"' 2 d 5XtXQ.n.-.C j ' +.5.M.k.x.x.N.x.v.J.-X^.G X.2.x.b.8.X.&.n.l.H.Y 9 D 1.w.n.l.h.C y ` n.m.U.m.x.x.6.F v.-X*XoX-...!.4.4 &.9.",
"d y H.-XyXU.J.n.d j ' | ..-.X.6.-.h.x.H.M.M.5.4 ' | +.d.w.<.%.<.H.l.4.K Y.Y.m.9.[ ;.R r { -.q.0.N.6...X.F <X%XT.C.-.k -.| 5.L.] ",
"7 n.m.c.4X_.n.M.y.k _ [ | } I } ....-.;.9.4.G j G K _ | 0.q.4.%.%.5.7.Y X./.n.h.;.B.u.E { l.G <.&.X.| ' d !.N.x.d._ +.P.;.| -.| ",
"x.G.M.j.!.!.M.L.=.G u f d f p  .| ..-. .| | X.oX%XoX0. .I  .%.%.&.X.U Y : x.C.;.u.p.( u.E C { b ..| H : 2 x.T.x.,.+.T.!.E.X.B _ ",
"1.G.x.3.!.L.5.-.] s N h.n.x.w.>.' | I =.' k G 5.v.!.#Xn. .G G U U U  .I f y [ [ y.n W K.].E V b -.x.L.N.H 3.d.N.x.3.:X;XM.f.G j ",
"7 4.9.1.x.d.2.d p : 4.-XrXqX>XyXtX^.G v 4.H.w.-.| 3.L.M.f.X.G u v  .f.P.].y.{ O.W a.S. XK.K.r.( P.L.M.Q.~.J N.c.x.b.0X>X^.w...y ",
"b b P } X.J p J N s 7 _._.E.Y.>X%X~.w.1 ~.3X8X~.N.,.| 2.;.+.' N 1.Q.;XC.=.r.r.W T {.[..X,Xa.p.a.u.5.z.n.Q.<.1.5.>.Z.8X>X8Xn.6.} ",
"9.: 2 + 6 2.%X~.q.G.4.B !.n.N.v.N.x.w.D ).!.!.C.C.A.v.d | k ] oX3X4X[ h T T T W D.uXuXuX|.uXs.F.C ;.l.l.M.5.G o.f ^.8X>X&XU.8.1.",
"k.N : H *XrXwX%XH.G.k.U ;.L.v.v.M.G.M.] j.v.j.d.d.f.v._ y | C.h.H i Z h O.e.e.D.D.S.s.s.[.|.[.'.y.c *.h.h.] b d 1 m.>X^.U.^.c.5.",
"M.' K wXeX@X%X=XL.G.%.S i i h ` { +.=.E ;..._ { C.C.C.OXE.1XoXs j V ^ ( O.S.|..Xs.s.[.s.{.|..X[.'.~ ~ ;.h.=.y  .D Y `.N.N.m.c.x.",
"9.N d 9X@X@XW.+X).] 8 u.u.*.T *.W t n q q r o - OXcXjXjXxXcXxXwXE n V O.) O.{.{.a.[.[.|.s..X{.t.u.u.Q m c S =.9.&.a 6.N.N.6.1.4.",
" .B K W.=X+Xg.A._.` X ; z.}.) / g W T ) t e ~ o R aXxXvXxXxXfXxXiXS R h ^ ( a.'.s.e.|.s.{.[.a.T t.! x *.K.c [ L.&.a a 9.N.k.&. .",
"' 0.d.3.+XA.A.g.9.c < O / }. XXX.X'..Xp.O.) ( h n z.lXcXxXxXpXgXbXkX{ h h O.( p.{.s.s.F.[.t./ t.) e Q Q / *.[ l.5.P 2 P c.w.4.N ",
"0.N.c.6.3.~.N.l.:.r M x z F.7XiX|.D.a.i.D.s.e.t T R =.jXxXxXgX2XcXbXjX;.e h O.r.a.XX.Xi.t.t ) $.! x w ) Q F./ :.h.]  .v 4.G.&.B ",
"N.m.c.1.o.3.L.G.c * z #.% F.}.iX|.e.W e.W s.'.T h R m ;.cXxXhX2XzXxXvXaXO.h O./ p.t.XXt.) ) $.x w O & x m M i { h.%.x.&.D 4.v 9.",
"x.1.>.L 9 p 9.P Z % ; M , % }.K.uXS.g e.W W [.'.T q ~ h C.cXcXfXfXhXvXnXiXh R / / p.r.u./ T w , % x A A M m m [ y j.v.7.J 7 8 4.",
"} H D k 2 d #X$XJ.b % x , O & }.D.uXD.e.W a.|.[.a.g n V R OXlXhXhXvXhXcXvX6Xh r m x e , & w w m $.x x ! ~ V E 4 ..k.v.&.G v I %.",
"o.X.7.4.H  .!.4X6X[ < , A * % , y.].iX XXXuX[. X Xa.! M V h ,XzXhXhXxXxXnXvXiXq   * ; * ; r r S z ! { S V V ` ;.M.N.8.8.o.Y a D ",
"Z.x.x.&. .P 9.Q.sX_.B 8 c A % l ; r.}.p.) T g $.M $.) *.S e r ,XxXxXxXxXpXkX$X{     ; * < o z r c e * V S [ =.;XL.m.Z.w.w.<.1 N.",
";X~.x.-.%.P ..H.-XT.-.i < #.A & l & Q ! t T w x w A ! x M % . i 1XhXgXiX1X1X6X[ $ $ $ * c c < Z { S B ` ` B ..1X#XN.c.b.b.X.X.&X",
"~.%XN.M.%.G P n.N.N.1.P c l A z z z , ! ! x w w z ! , , %     * C.1X1X1XOX6XP.{ l c S :.:.:.z.=.P B %.h.H -.j.L.wX%X+XZ.x.6.d.wX",
"R.x.H.9. .-.I a X.o.L -.B c % l , z , ! #.! x z z M z z l , $ * d.1XOXd.-.y.5.h.z.Q.I.I.G.{ [ H I j.G.G.x.&.5.N.F %XpX9XZ.8.8X&X",
"R.N.v.-.5.9.p : } x./.H.G.:.A $ z & r % O < ! :.u.c < < $     $ ..+.' d.oX#Xx.M.J.J.I.q.] u > N ' 9.n.4.x.3.d >.1.,.V.sX8X(.(.8X",
"x.6.x.M.H.1.-.)./.x.x.H.=.c S c l :.z / V r < i V E r q U U c B P.Q.k.+.v.x.c.0.4.9.] %._ s H ..] -.1.&. .X.Y 3.W.#XoX!.3.>.g.c.",
"} } 9X-XL...K X.m.5.H.4.B B G.;.z *./ c i n *.=.z.L.!.!.-X5X_.q.G.M.M.'  .x... .v P  .G k H G N ' ;. . .X. .Y 0.N.v.N.%XW.k p ,.",
"d.1.&XW.b.@.6.>. .&. .-.G m.N.x.=.^ ` s l.$X;X6X6X5X<XoX!.#X-XL.9.0.&.D 3 2 f o.^.T.A.b.g.g. .a 8 8 H I Y o.J 7.v.C.M.P.~.R.} (.",
"E.1.W.A.x.@.x.:XB P &.B n.Z.x.8.+.B ` 3X6X4X#X#XW.!.*X#XA.N.v.1.f } d @ 1 <.qXyXyX9XA.A.b.A.n. .b - @ 3 7 H  . .6.d.v.v.x.N.w.R.",
"N.j.g.b.8.L x.R.4.B B u M.x.3.3.F k &.4XQ.Y.H.k.n.m.v.x.N.x.N.3.N.wXtX0.Y rX0X8X@X@X9XA.A.%XH.G.] C : b Q.Q.j.B ' ..d.j.1.<.Z.b.",
"n.6.3.g.>.} 8.x.1.&.l.-.I J o.,.d.3. .4.G.n.n.m.N.6.1.3.x.3.1.} N.tX0X5Xm.U.0X=X8XA.b.A.A.2XQ.n.l.-.B N H.H.-.p N 5.L.X.d c.R.Z.",
"M.-.5.X.s +.+...K ~.tX-X5.} A.A.x.3.X.5 K 6.m.6.>.X.Y X.-.'  .I H.eXdXeX~.6.x.%XT.W.T.N.H.U.U.n.H.j.-.P 0.o.J Z.0X8XrXwXd b.A.c.",
"j.-.-.X.J &.} 2 v.E.E.W.c.Z.+X=XN.1.1.J T./.x.8.Y F F d a y 8 } ).Q.-X0XT.N.} -._.N.x.m.m.m.n.4.;.1.-.' 3 K ^.sX9X=X=X8X3.X.M.n.",
"M...I I G G X.5 #XT.x.x.x.c.N.Z.N.6.H X.^.qX>X%X%X%XW.L.F 7 9.;X~.N.U.N.N.6.o.@.F w.T.U.n.1.} J &.5.&.v + w.yXyXyX=X(.(.T.} 0.G.",
"X.' H G v -.;X| !.!.N.N.N.7.c.6.0.X.>.4.1.~.x.c.L.T.&X>XL.6.Q.N.&XW.8.x.x.7.| @.5 0 v 8.x.7.N.%X:X5X/.H Y /.>X9XqX+XA.8.3.I J  .",
"8 H y G x.H.N.X.M.N.j.x.v.5.6.1. .5.L.Q.6.} 1.6.N./.8XZ.N.J &.6.H.g.N.@.} o.} d K N.:XeXwX:X%X*XoXv.N.X.E.%XT.b.%X@XW.3.} } 7 4 ",
"X.-X3X).L.Q.x.I x.j.M.H.N.c. . . .4.c.M.~.T.X. .X.6.Z.x.x.F } X.7.x.} @.k 6 5 g.=XqXsXwX+X~.W.b.v.N.6.2.x.w.N.N.~.%X!.x.X. .B = ",
"..Q.n.G.m.4.&.K ..1.c.n.c.G.P s G 5...5.m.~.R.W.x.} L } L Y m./.%X~.E.V.} 2 U.&X*X=X=X%XW.v.j.v.x.x.} 1.c.N.N.w.b.b.v.3.X. .P 3 ",
"G T.x.x.c.&.} D I 6.N.q.H.n.I = H I ' -.j.N.N.N.R.Z.2 } } } ~.E.^.E.~.x.x.} =X;XE.W.!.E.x.+.2.3.x.K y } 1.x.m.N.X.,.-.X.'  .B = ",
"7 n.0.9.1.X.} f d x.N.x.x.4.G = y B G } 1.x.x.b.N.T.>.:X^. .&XN.c.m.x.c.m.7.:X~.M.M.M.v.X.' K ' d } o.H Y X.<.7.} } d p f 8 # = ",
"= I  ...1.7.X.9 5 F  .} P I %.%.n.n.9.X.H ..1.7.3.>XwXT.x.1.W.%XH.c.U.x.&.H 6.H.N.c.j.6.} F N -.~.+XQ.1.p p F x.E.oX0X1X!.j.P : ",
"= v 5.c.^.R.~.U.L = p H X.&. .G %.5.x.N.1.N.x.x.T.>X%XZ.x.x...L.x.1.w.x.1.p f x.H.N.4. .v 8 G L.v.N.Q.N.J 3 9.~.%X%XtXsXyXaX5X-.",
"3 4.Q.H.!.-X8X:X^.L x.&XtX-XG.1.G ' ..X.} T.E.<.c.>Xx.N.1.N.X.X.1.X.} F J X. .U 9.v.&.v 4 = ' ).N.N.n.n.x.a 0.j.x.E.-X;X5X5XrXH.",
"4 9.9.4.n.T.T.x.N.3.&X;X3X%XM.9.} x.#XrX6.X.7.J f x.N.x.-.5.9.5 6 F 6.~.U.x.v.} 5 -.x.5.&.N %.M.v.d.x.n. .G 4.4.X.6.L.T.Q.P.-X9.",
"= P H &.j.x.6.8.g.R.8XT.H.!.n.} J <.X.N.x.o.w.c.1.7.x.3.-.} } p o.+X=X=X%X/.~.5.-.N.L.6.%.G 9.M.-.2.j.-.G 7 9.j.N.2.5.x.x.n.m.s ",
"- b B G o.3.w.8.g.@X=XN.x.x.1.v J N.N.o.8.X./.N.c.3.1.J G F : J ,.oX9X=X<X=XW.N.-.2.j.M.x.I h.5...5. .H G.P -.G.j...1.3.8.7.X.4 ",
": # > 8 H 1.x.8.R.8X~.b.1.o.J 5 U.:X;XE.K 7.:X).v.3.} y G _ 4 W.A.@.V.@XoXA.V.N.x.....v.M.F -...| G -.n.).k.H ..-.+.X.} o.Y f 1 "
};
