/* XPM */
static char *_6f0732e2b094556fd9c68fcd08997cb0aENpC3emBtBGcl3[] = {
/* columns rows colors chars-per-pixel */
"64 64 245 2 ",
"   c #070302",
".  c #170C04",
"X  c #16110C",
"o  c #1B1309",
"O  c #1C1A16",
"+  c #1C1B1B",
"@  c #161413",
"#  c #23180A",
"$  c #221C14",
"%  c #2A1D14",
"&  c #221E1A",
"*  c #201613",
"=  c #34160C",
"-  c #1F201B",
";  c #24221D",
":  c #2B241C",
">  c #282317",
",  c #32291E",
"<  c #3C2E1E",
"1  c #362A17",
"2  c #3C341B",
"3  c #2E2006",
"4  c #1F1D20",
"5  c #2A2522",
"6  c #2D2A26",
"7  c #2C2C2B",
"8  c #252525",
"9  c #342C24",
"0  c #3B2E23",
"q  c #332D2A",
"w  c #382421",
"e  c #2B312C",
"r  c #3C3124",
"t  c #34322C",
"y  c #3B342B",
"u  c #3C382B",
"i  c #343433",
"p  c #3A3433",
"a  c #3D3A34",
"s  c #3B3B3B",
"d  c #38383A",
"f  c #362D30",
"g  c #473719",
"h  c #553915",
"j  c #4A2B0C",
"k  c #603F0C",
"l  c #422E23",
"z  c #423425",
"x  c #41362B",
"c  c #43392D",
"v  c #4B3D2D",
"b  c #483929",
"n  c #443C34",
"m  c #4A3D32",
"M  c #453B39",
"N  c #5C4217",
"B  c #65451B",
"V  c #55442A",
"C  c #4D4133",
"Z  c #4D443B",
"A  c #47433B",
"S  c #534535",
"D  c #53463A",
"F  c #54493B",
"G  c #5A4D3C",
"H  c #584B35",
"J  c #5C523F",
"K  c #745A2B",
"L  c #675539",
"P  c #765839",
"I  c #684C2E",
"U  c #786737",
"Y  c #383B42",
"T  c #2F3543",
"R  c #403E41",
"E  c #3D4544",
"W  c #4D4943",
"Q  c #4A4747",
"!  c #554C42",
"~  c #5C4E42",
"^  c #554946",
"/  c #5D5244",
"(  c #5C534B",
")  c #5A5549",
"_  c #595654",
"`  c #625444",
"'  c #6E5B44",
"]  c #64554A",
"[  c #65594B",
"{  c #6A5C4D",
"}  c #675844",
"|  c #725B44",
" . c #765E4A",
".. c #655B53",
"X. c #6B5D52",
"o. c #635854",
"O. c #735E52",
"+. c #604D46",
"@. c #6C614D",
"#. c #6B6744",
"$. c #746243",
"%. c #786649",
"&. c #6E6254",
"*. c #6B645B",
"=. c #656258",
"-. c #726455",
";. c #7A6B55",
":. c #74665A",
">. c #75695B",
",. c #7A6B5C",
"<. c #776759",
"1. c #7C715E",
"2. c #7C7252",
"3. c #7F784A",
"4. c #6C6561",
"5. c #636564",
"6. c #746B61",
"7. c #7B6E62",
"8. c #776965",
"9. c #7D7263",
"0. c #7D756C",
"q. c #7F796D",
"w. c #7D7772",
"e. c #6E6F75",
"r. c #855F30",
"t. c #86683B",
"y. c #977B3C",
"u. c #866A49",
"i. c #89784A",
"p. c #947747",
"a. c #856B57",
"s. c #83735B",
"d. c #8B7657",
"f. c #957959",
"g. c #936B51",
"h. c #A07B4A",
"j. c #A2785D",
"k. c #816E62",
"l. c #837465",
"z. c #8C7A66",
"x. c #84766A",
"c. c #86796A",
"v. c #8A7C6C",
"b. c #897768",
"n. c #917E6C",
"m. c #927D64",
"M. c #857B72",
"N. c #8C7E71",
"B. c #887875",
"V. c #907F73",
"C. c #9B8457",
"Z. c #95814F",
"A. c #A98A58",
"S. c #AA925A",
"D. c #B6965B",
"F. c #B8A85A",
"G. c #8E806D",
"H. c #93826E",
"J. c #998768",
"K. c #8E8173",
"L. c #8D847B",
"P. c #938475",
"I. c #998775",
"U. c #958975",
"Y. c #9A8A75",
"T. c #94867A",
"R. c #96897A",
"E. c #9B8C7C",
"W. c #998779",
"Q. c #9E917E",
"!. c #A78966",
"~. c #B28D62",
"^. c #AA9366",
"/. c #B49963",
"(. c #A18F7D",
"). c #A58C75",
"_. c #A2927D",
"`. c #A9967E",
"'. c #A89577",
"]. c #B99777",
"[. c #B48C72",
"{. c #BAA773",
"}. c #C9AE56",
"|. c #C49B75",
" X c #C5A179",
".X c #CCB76D",
"XX c #F9D759",
"oX c #E7CC5B",
"OX c #D9C66E",
"+X c #E6CA66",
"@X c #F2D86C",
"#X c #F5E37A",
"$X c #898A84",
"%X c #958A81",
"&X c #9B8D81",
"*X c #968F89",
"=X c #9D9182",
"-X c #9E948A",
";X c #949194",
":X c #A39484",
">X c #A69885",
",X c #AA9A84",
"<X c #A3968A",
"1X c #A6998A",
"2X c #AB9C8C",
"3X c #A99786",
"4X c #B49F89",
"5X c #AA9D92",
"6X c #A49B90",
"7X c #ADA18D",
"8X c #A7A684",
"9X c #B3A38E",
"0X c #B6A38B",
"qX c #ADA192",
"wX c #AEA499",
"eX c #B4A494",
"rX c #BAA695",
"tX c #B6A995",
"yX c #BAA995",
"uX c #B6A99A",
"iX c #BBAC9B",
"pX c #B4A699",
"aX c #BEB19D",
"sX c #BFB788",
"dX c #9A9FA2",
"fX c #BBAEA1",
"gX c #B4AAA0",
"hX c #BEB2A3",
"jX c #ACABAF",
"kX c #C1AF9D",
"lX c #C2AC95",
"zX c #C2B19D",
"xX c #C0B096",
"cX c #C4B4A3",
"vX c #CBBCAB",
"bX c #C7B9A7",
"nX c #CDBFB2",
"mX c #C9C1AC",
"MX c #D2C3B2",
"NX c #D8CBBA",
"BX c #D1C6AF",
"VX c #E5DD9A",
"CX c #C6BBC1",
"ZX c #BFC0C4",
"AX c #C9C6C9",
/* pixels */
"R.{ v r C [ -.@.qXE.T.R.l.>.x.iXtX0X!.~.C.S.sX8Xq.:.#.L C.2.S v.7X'.1.G ] 8.:.{ ) #.) ) *.F [ @.J qXiX9.T.[ n C ] X.&.,.:./ x =X",
"1XtX=XP.x.` C @.2XL.E.P.7.+.&X3XJ.J.p..XVXVXVXmXdXG.s.'.;.-.&.&.aX`.:XP.7.o.X.[ F F A F ^ [ l.} C H.=X:.&.&.~ ..0.7.~ ^ [ c r ,.",
"P.1XtXP.9.! m ] K.U.G.c.} l O.z.C.U }.VXVXVXNXmX;XB.Z H M M +.o.0X0XtX:XT.T.T.7.>.J c 6.K.T.R.0.,./ &.7.q.L.G.&.N.&XN.>.9.@.Z C ",
"U.v.K.K.7.R.fXl./ 1.&.l.:XI.H V U }.@X@XVXOX8X;Xe.R A K.bXAXCX5.7XaXtXU.V.9.7.7.&.[ q.-Xc.,.0.,.&.F 6.T.K.6.>.-.C &.1X6X-XR.&.F ",
"@.c.<.@.c.uX:XT.v.S v.zXrX,XY.u.y.+XXX#XOX3.#.5.e.jXAXAXZXZXjX8.R.yXeXE.&XK.c.9.[ @.>X=XR.B.8.+.F =.L.wX%XN.>.-.z N.nXvXtXeXx.~ ",
"S c.-.>.5X1X%XP.,.<.4X0X,X).J.K D.XXXX@XF.v 5.dXjX;Xe._ T _ 5.4.x.2X,XU.c.v.9./ J u qXtXQ.%XB.M Z ( 6XuXR.x.1./ S iXMXcXhXtXV.D ",
"< { @.` :XT.x.b.<.(.iXyX`.J.d.U }.XXXX@XZ.A dX$XT +   X $ F w.( >.E.Y.G.-.-.-...C / uX7X=X-X4.R 8.Z wX5XR.>.@.C K.aXcXcXcX<Xx.c ",
"C Y.=XP.:.9.B.v.<.3XvXtX8X^.p.Z.oXXXXX+XU 2 -       . ..:X,.N.o.+.<XH.;.1.&XE.v.A >.qX1XU.K.^ o.o.D 5X*XL.-.H H vXtXfXrXeXV.k.l ",
"9.eX2X&X:XN.S { { cXkX0X).J.i.i.oXXXXXoXU 2 u e O , } L %.L b.+.l ] l.I.4X:XT.7.m >.uX7XU.6.A 5.^ C =.&.&.C < G.mXyX,XE.Q.l.+.z ",
"G.2XeX:XV.7.O.l.<.bXcX).Y.s.%.Z.OXXXXXoXU 2 e E ; u z g g g 7.^ ] V.(.3X_.W.x.{ 0 / U.>XL.n ^ o.W ..<XM.1.[ H E.aX7X3XU.P.O.G 1 ",
"v.Q.2XP.,.,.(.V.(.iX3XI.v.s.U i.OX@X@X+XU u e E 5 9 . % , 9 ( B.5XeX:X3XY.P.k.+.l.q.6.9.:.y 5.^ 0.&.<XK.v.-.} 8XyX7X_.Y.V.-.O.S ",
">.x.P.k.] { P.k.3XcX:XW.Q.2.z g Z.F.}.F.#.e e E 8 p . % , 9 o.pXiX4X:X:XP.k.+.O.K.U.1.) 9 Z 4.0.B.>.U.G.1.-.` E.yXaXU.Y.;.:XeXb.",
"c &.1.>.-.a.v.} vX3XE.R.v.@.` # , 2 2 2 i d Y Y 5 ] = = w L 3XJ.2X(.:XE.l.O.m &XE.K.7.! y 8.0.wX=XL.v.>Xv.,.J 9.3X3XP.E.rXE.W.<.",
"} Q.7XiXeX2XQ.<.bX:XE.&X>.D [ 9 & e a s T T Y f w m.g.P I a.j.f.`.Y.(.c.8.O.{ 3XR.R.N.Z W ..w.6XR.P.,.qXW.v.} @.U.l.l.eX:XE.b.` ",
"bXbXiXiXP.,.H.I.cX>XR.x.n 9 ! A 5 5 f M Y E ^ l w a.|.[.|.[.g.4XJ.U.E.V.<.+.b.W.U.R.8.n *.B.-X*X1.z.-.H.W.P.,.} -.&.>.2XtXW.l.s.",
"eX1X=XP.,.v.I.{ E.E.-.0 &.:...Z 5 & 4 f d Q R m w u.|.|.!.j. .4Xz.'.U.P.8.~ eXV.U.R.( p o.$XnXmXbXQ.` ;.Y.P.l.{ F v.9.>.:XK.-.v.",
"v.K.v.l.>.l.-.@.N.>.S l.P.K.R.R.c.u 9 4 q f M M < | '.u.h  .k.3X3Xs.E.x.-.P.2XY.E.M.q _ 4.gXrXzXbXrXE.{ N.W.x.,.F / c.X.:.>.>.D ",
"F -.@.<.-.C ` 7X2XN.&.v.v.9.l.R.U.q...t q p f x 1 L a.| ' -.V.&X:X{ -.l.~ 5X4Xn.P.&.y ( *X:X,X:X9XtXY.-.L b.K.<.,.{ >.N.D X.&.D ",
"-.F S <.fX=X,.L.v.{ N.5XK.v.U.R.=X1X-XK.C z b l I V | L '  .V.&XI.V.F ] m 2XE.&XR.: n _ L.T.Y.Y.(.(.E.v.z G R.2X<Xv.x.P.7.m ] ] ",
"&.z G hXhX<XU.9.[ m -.7.v.U.K.P.L.%X&XR.@.n.J.,X`.g.m.).m.,.k.V.T.E.[ S } v.K.L./ 9 _ A 4.T.I.Y.W.P.P.v.} P.uXpX2X0.,.5X9.m 7.M.",
"F m &XeXnX:X%XP.~ C :.:.,.7.>.B.8.V.V.H.U U %.C.{.{.m.m.J.,.,.q.R.T.v.[ E.E.%X0.u a ) n X.<.V.V.I.P.;.,.} iX7X>XP.x.~ l.:.B.E.:.",
"S R.R.T.fX2XT.&Xc./ X.,.>.<.X.:.k.7.v.a.$.^.^.u.t.f.).a.m.z.q.*.7.M.k.[ <.eXR.=.7 ) ! 9.cX:X] 8.<.k.-.{ +.2XR.U.v.X.7.&Xx.-.x.&.",
"N.T.R.K.1X1XR.&X9.` S D / D ^ :.8.:.,.V ^.C.N /.p.r.4X%.' ;.1.>.*.7.;.O.z P.L.W a ) ..:XcXvX:.~ <.<.[ r z U.-XP.l.9.:X5X<X7./ &.",
"l.%XL.c.2X-Xv.9.:.F / N.T.K.V.7.O.O. .L U N P K A.t.!.P ' H } =.:.>.O.' F C *.p W ..v.eXkXcX3X[ l.G.Q.=X} l.P.R.P.l.fXpXE.x.] D ",
"D c.v.l.P.K.l./ S z 9.uXcXhXhXvXvX(.' L u.N u.h  Xp.u.d.$.s./ C F >.z.(.yXfX( t W 8.tX0XlXyXkXE.qXR.E.E.eX-.U.R.P.R.cXuX1XN.>.D ",
"D ^ X.:.,.{ S { G H v qXpX:X6X5XeX9X;.| f.P j B  X~.N !.%.%.#.) c.:XkXkXkXhXy p A R.:XI.0XlXrX2Xv.-XR.E.E.1.c.l.,.=XfXpXfXT.B.-.",
"B.0 0 l c c.eX5XU.Q.l./ 2XN.:XT.J.Y.;.s.u.J.].g.p.B h P ).`.< 1XtXyXzXtX&X*.9 n ! R.P.`.0X0XrX2X,.P.U.U.E.9.[ 1.F 1XrXrXrX:XV.s.",
"T.` r { tXmXcXeXE.R.G.[ <.%XT.W.U.Y.;.d.$.u.P p. XA.P g.!.'.V 2X2X2X:X0.[ t : Z F L.E.`.rXlX3X4XU.@.K.=Xv.>.S G r U.pX2X:X3XT.v.",
"T.O.{ cXvXeXrXrX_.>XU.l.,.V.N.W.P.U.Y.| u.N k g.~. Xr.g.g.u.I a.s.,./ Z ; 7 t F ) ,.%XE._.rXY.E.U.9.1.K.c.,.S &.G -.9XE.E.T.W.V.",
"N.` G iXpXrX1X4X9X:XW.P.} l.&XW.G.l.H.$.i.U N K h.~.j.g.I j  .m.).K.F t d O X t C 9 :.L.U.2X(.I.E.v.` ,.,.{ >.U.,.D v.=XE.c.k.v.",
"<.] ] 3XrX9XW.(.9X_.E.W.l.<.n.&X7.>.n.$.S././.N r.h.j.|.[.j.P g.z.z A i Q 8 e Z , c ! *.T.=XG.E.K.K.S ` c.-.,.=X7.S S v.W.n.,.;.",
"X.V.n.n.2X:X(.n.U.I.H.n.k.O.V.T.B.] a.| C./.S.Z.r.r.g.j.j.[.3X[.s.C e Y d @ _ ( *.-X9...6.v.P.z.9.>.C 9.U.eXW.E.v.{ z { W.P.x.+.",
"K.E.R.z.z.2XE.I.I.,.O.s.&.S *.x.7.{ } $.!.D.D.S.D.p.B B | u.a.O.[ Z t q 5 ; L.) q.R.%XK...X.-.<.O.<.} >.c.U.N.&XN.<.X.~ x.T.7.] ",
"%XR.P.l.:.b.:XP.G m v z J P.c.&.~ <.' f.^.{.S.Z./././.f.g. .a.7.B.$X! o 0 q.q.~ 7.K.R.R.9.z F >.>X:XU.{ J 1.c.qXN.<.T.l.~ l.( x.",
"P.l.7.{ m S z.O.b.3XkXE.<.1XR.R.9.%Xs.H $.3.K i.A.!.].J.).P.G.>.:.R.! % Z K.] [ 0.U.Q.=X<X-.,.2X2XR.T.>.b C >.G.v K.T.x.[ m m c.",
"<.{ ` +.l J eXeXbXkX1XE.-.G.v.,.:.9.2 # 1 # # 2 $.%.s.%.l.I.U.K.8.*.6.Z =.@.Z 7.G.U.U.U.E.=X-.9.>.G.l.>.c.l.J v 7.T.T.>.{ ~ { >.",
":.8.x.x.{ O.3XiXcXiX2XE.G } 9.&.( F . > o # 9 c > > 1 0 H 1.>.>.>.-.>.>.@.C &.@.@.>.-.1.>.x.X.c.<.9.R.G.U.l.J v.E.P.v.P.<.-.G G ",
"&XT.P.7.-.O.b.3XvXrX9XV.F ,.eXcX1X..o X . @ O O X O * $ t [ H J H G J ;.S C J } ) @./ / @.x.R.T.G.>.G.R.0.,.0.tX-XR.E.V.N.7.z E.",
"uX2XT.k.,.{ ,.E.iX:XV.,.{ (.eXeX=Xq.u e M + + 4 4 4 X > >.hXhXaXqXG.J E.1X8X>XK.q.L C -.=XL.P.N.c./ G ,.&.` <.uX7XE.T.W.E.,.-.rX",
"5XeX%XE.,.] { W.W.E.b.,.@.E.=XP.L.) c c Q Y 4 E _ 5.) F L.hXuX2XU.G.P.7XaXiXiXqX:X1X=XR.-XR.B.k.{ ` l.l.{ c.z.>XvX7X9X(.P.v.P.bX",
"3XT.&Xc.<.k.X.S ,.-.<.,.-.P.I.c.J A n y M _ i _ =.w.w.u ..L.P.v.l.' @.iXrXrX5XE.E.:X=XL.N.:.4.o...N.=XE.P.,.l.E./ eXvXkXW.P.iXyX",
"<X&XW.k.b.V.S 0 <.K.,X>Xx.H.V.} >.) <XF y _ W p 5.q.w.u n ,.-.` F U.:Xv.2XeXN.E.&XT.=XK.8.D x ] &.v.R.x.U.l./ 1.c.1.>XMXcX2X9XiX",
"V.b.W.E.E.l.l.5X5XP.P.E.,.` O.2X:XN.k.B.W F ) y =.q.q.D / 7.~ ` 2X3Xv.l.E.W.E.c.c.x.:.>.X.~ X.7.:.9.x.>.<.>.-.c.3X7XeX2Xl.s.n.W.",
"<.-.cXeX=X<.` 7.T.N.R.x.} D E.:XI.&XX.S Z C ! 9 [ q.M.F S =X2XP.3XW.P.{ ,.l.k.-.` X.X.] ~ X.( ~ *.9.>.&.>.:.-.B.W.E.I.pX3X` V l.",
"m.l.tX3XR.&.v.9.,.7.7.,.[ E.E.P.R.G.>.C :.F W Z ! 6.M.! C K.iXQ.b.b.l.D l v H ;.:X:X>XH.v.N.<.G m m ..{ X.6.{ x.E.W.E.:XeX:X;.2X",
":Xl.2XE.P.-.P.fXD <.<.~ &XW.W.V.<.` { bXhX] n Z M 4.q.( S ) K.c.+.{ S b < a.kXBXvXcX2XQ.E.(.P.>.~ 9 9 x D ] >.-.v.V.W.W.P.W.n.3X",
"Y.H.H.U.G.&.P.<Xx.F [ D V.V.v.l.} ` 9.qX-X*.n W A ( w.=.u J Q.q.P.MXbXb.O.cXvXiXiX0XyX,X_.eXY.P.:.] l ^ 6X:XV.` X.,.b.I.l.b.(.Y.",
"Y.H.z.L.1.&.G.T.l.7.T.7.-.O.-.1.G.z.-.M.T.M.9 Z a W 4.=.n F >.>.W.bXcXcXU.:XiXiXrX>X_.7X1XyX_.T.%X9.] ~ &X%Xk.D ` v.(.,.G P.2XW.",
"W.9.v.<.F 9.9.>.} 7XbXeXP.-.3X:XY.b.<.b } M.A A A u =.=.c Z *.@.E.vXNXvX5XN.N.eX=X>X`.Y.W.=X&XT.%XN.9...N.>.O.(.cXlXbXzXJ W.E.W.",
"K.9.,.9.[ 9.&.z U.=X>X>XY.Y.4XrXP.b.,.O.1XqX! C A t 5.4.n y C <.9X,XpXfX:XT.:.l.2XU.U.U.Y.W.T.B.x.9.7.-.l { 3XnXcXrXtXkXm.,.R.R.",
"E.<.&.[ X./ 9.c qX:XP.E.P.I.E.E.:XP.` <.2XhX6.u A a *.*.> u N.2X2XY.(.E.%XB.,.O.} G.`._.I.b.O.O.7.c.7.~ l n.vXnXvXlX4X4X:X-.N.%X",
"7.X.[ { G 9.tX<.1X1XE.W.E.b.W.v.l.,.l.c.x.-X..t W e w...: &.&X1X9X3Xn.Y.P.b.<.-.v 2 G m.P.b.E.eXaXhXeX[ O.2XrXcXzXrX_.H.b.X.X.<.",
"m ] m { T.&XR.,.R.W.P.P.W.b.v.l.;.c.=X-XN.*.y X - e a 6 n [ c.z._.H.).-.-.a.<.H L Y.zXzXcXiXeXrX2XR.E.,.<XeX:XY.9X9X,Xl.O.-.C z ",
"7.eXfX5X3X=XW.{ P.P.T.%XW.E.<.>.-.9.U.R.-X-X: & t _ W : D ( ` <.z.H. .-.J z v n.yXcXBXbX0X2X,XI.W.E.G.l.W.n.E.(.4X9X7XP.<.>.( 0 ",
"<.<XV.:XT.v.>.] -.l.V.E.T.T.] D [ z.,.L.%X%X& & d _ 6 + n [ :XeXeX2X:XE.-.z _.iXtXyXyX0X7XU.G.U.U.U.-.l.P.E.W.V.U.E.U.v.,.:.X.u ",
"[ :XW.V.T.>.<.` X.N.E.T.%XE.X.0 [ [ &.:.L.=.@ 7 R Q @ 6 A :.:X>X3X:X4XP.I.<.eXyX>X3X7X,XU.s.9.G.G.` m <.l.P.W.Y.,.,.1.9.&.:.~ 0 ",
"m T.P.N.l.<.-.S F K.E.T.T.l.] 0 S / ) :.w.Z X f Y 7 + 6 M.*.pX:XW.T.W.R.P.l.iXqXE.E.E.P.,.&./ -.G <.-.{ O.,.l.l.;.&.J C F v , 9 ",
"l X.<.<.l.b.,.S v / -.-.X.X.8.8.K.K.U.>.A : : 7 p + + ; o.9.:X5XE.T.T.R.,.[ K.E.%X%XN.B.-./ J 9.1X9X3Xl.m S ` P.>X2XhXhX2XK.X.u ",
"0 ~ x.T.3X>X1X:X@.< S { >.,.-.] 9.9.U.%Xn @ $ t 8 + @ + q W O.7.~ &.c.K.l.F C P.&X%Xx.*./ C ) Q.I.R.1XE.{ z B.2XeXeXbXMXMXMXhX9.",
"y x.1X&X<XeXcXrX3XO.U.eXbXpX%Xl.[ [ 6.8., o e t 8 7 + + O : w % % # &.} } <.>.@.N.%X7.^ c 9 =.7XR.E.T.T.T.D P.K.P.>XuXtXfXhXvX%X",
"x c.B.c.P.:X:XP.Y.v.iXrXiXpX%Xb.:.T.1X<X# o 7 e e i Q d p f * * # . -.>X_.Y.E.>.v k.%Xx.6.) >.U.U.G.R.L.>./ c.x.,.G._.:X-X:XeXv.",
"y ..[ ,.K.K.v.H.P.>XaX_.:X3XT.O.X.0.0.... o : e 7 7 i e d q . o S :XtXzXaX,X_.G.7.&X-XB.6.) G.U.l.l.L.1.] Z M.K.E.l.c.P.L.U.R.F ",
": F ( [ >.c.P.H.H.9XrXE.V.W.x.~ ..V.E.c .   - O 4 e 8 8 8 @ * _ 7.eXtXyX0XlX9XY.k.b.N.%XR.@.G.q.>.c.-.[ T...9.E.L.>.1.v.v.z.,.b ",
"u , u C { l.n.n.,XtX2X).l.<.{ m :XgXhXR.> > - d _ e 4 4 7 ^ p -X3X%.`.0X7X3XY.Y.W.,.8.%X%X) 1.>.>.[ 9.R.5XL.[ >.9.1.<.<.,.-.S 0 "
};
