/* XPM */
static char *_40104965fc242e6e2b900d4348e12f3e9u86dhg8aEb2GQe[] = {
/* columns rows colors chars-per-pixel */
"64 64 256 2 ",
"   c #0B0400",
".  c #090601",
"X  c #140B02",
"o  c #1B0C01",
"O  c #160703",
"+  c #1C130A",
"@  c #181308",
"#  c #1C1B16",
"$  c #23190C",
"%  c #261709",
"&  c #33180D",
"*  c #241C14",
"=  c #2B1E13",
"-  c #271B1A",
";  c #361916",
":  c #280A05",
">  c #1F211B",
",  c #1D200F",
"<  c #2C2214",
"1  c #24231C",
"2  c #2D241B",
"3  c #282719",
"4  c #332414",
"5  c #33251C",
"6  c #342A1D",
"7  c #3C2C1B",
"8  c #3B2619",
"9  c #362D09",
"0  c #2B2322",
"q  c #2B2A23",
"w  c #2A2927",
"e  c #342C23",
"r  c #3B2D24",
"t  c #372927",
"y  c #3C3225",
"u  c #35342A",
"i  c #3B342B",
"p  c #383528",
"a  c #3D3C34",
"s  c #3C3734",
"d  c #2E3326",
"f  c #281020",
"g  c #48291B",
"h  c #47371A",
"j  c #4D3112",
"k  c #6F2216",
"l  c #472A27",
"z  c #542D24",
"x  c #433425",
"c  c #42342B",
"v  c #433A2D",
"b  c #4A3C2D",
"n  c #4A3627",
"m  c #573627",
"M  c #443C32",
"N  c #4B3C34",
"B  c #493836",
"V  c #553B37",
"C  c #482E34",
"Z  c #623A2B",
"A  c #613834",
"S  c #63130D",
"D  c #3E4436",
"F  c #574C17",
"G  c #4B422D",
"H  c #444235",
"J  c #4B4234",
"K  c #4C443B",
"L  c #4C4A3D",
"P  c #484538",
"I  c #534334",
"U  c #53443B",
"Y  c #544B3C",
"T  c #5B4B3D",
"R  c #594636",
"E  c #5A513B",
"W  c #544630",
"Q  c #664A38",
"!  c #68523B",
"~  c #754F35",
"^  c #716221",
"/  c #593E43",
"(  c #4B4B43",
")  c #474643",
"_  c #544C43",
"`  c #5B4C43",
"'  c #5A4746",
"]  c #5B5344",
"[  c #55544B",
"{  c #5B544B",
"}  c #5C594C",
"|  c #555346",
" . c #5C5C53",
".. c #595956",
"X. c #4E524A",
"o. c #644B46",
"O. c #635444",
"+. c #695443",
"@. c #64554B",
"#. c #6C554B",
"$. c #635B4B",
"%. c #6B5C4C",
"&. c #665946",
"*. c #745949",
"=. c #645D52",
"-. c #6B5D52",
";. c #695855",
":. c #745B56",
">. c #70494C",
",. c #5D6156",
"<. c #66614C",
"1. c #79644D",
"2. c #656254",
"3. c #6C6354",
"4. c #63645B",
"5. c #6C655B",
"6. c #6C6A5D",
"7. c #6A695A",
"8. c #736354",
"9. c #73655A",
"0. c #736A5C",
"q. c #7B6C5C",
"w. c #796657",
"e. c #76735C",
"r. c #765F62",
"t. c #6C6B63",
"y. c #656963",
"u. c #736D62",
"i. c #7B6C62",
"p. c #786664",
"a. c #6D7167",
"s. c #737265",
"d. c #7C7264",
"f. c #73736A",
"g. c #7B756A",
"h. c #7A7A6A",
"j. c #7B7C72",
"k. c #757A72",
"l. c #6C7270",
"z. c #5F6362",
"x. c #B81917",
"c. c #9C3328",
"v. c #AD3028",
"b. c #9A201C",
"n. c #D70B0B",
"m. c #CE1718",
"M. c #EA0909",
"N. c #CA302E",
"B. c #CC241C",
"V. c #8F4B39",
"C. c #B64539",
"Z. c #8E6F33",
"A. c #85741A",
"S. c #835947",
"D. c #875D58",
"F. c #975248",
"G. c #A95949",
"H. c #AF544A",
"J. c #856859",
"K. c #87745B",
"L. c #8F6F50",
"P. c #A5765B",
"I. c #AB6E50",
"U. c #826C64",
"Y. c #886A67",
"T. c #946E6B",
"R. c #837465",
"E. c #83756A",
"W. c #847B6B",
"Q. c #8B7C6C",
"!. c #887766",
"~. c #96786B",
"^. c #837D71",
"/. c #8B7D72",
"(. c #887775",
"). c #977B75",
"_. c #916F70",
"`. c #A67B76",
"'. c #AE756A",
"]. c #C7594F",
"[. c #CB6759",
"{. c #C87368",
"}. c #E17267",
"|. c #7C827A",
" X c #958631",
".X c #A68C3B",
"XX c #98864E",
"oX c #AA9658",
"OX c #AC8E4D",
"+X c #89836C",
"@X c #94846C",
"#X c #858373",
"$X c #8B8273",
"%X c #82847C",
"&X c #8B877A",
"*X c #938474",
"=X c #938975",
"-X c #94847A",
";X c #9C847B",
":X c #948A7B",
">X c #9B8C7C",
",X c #9A8574",
"<X c #9C927B",
"1X c #9F9069",
"2X c #A78763",
"3X c #A5867B",
"4X c #A4937B",
"5X c #B58D72",
"6X c #B7A66D",
"7X c #B6A755",
"8X c #C69472",
"9X c #CAAF6E",
"0X c #C09E5E",
"qX c #9A7E82",
"wX c #A27E80",
"eX c #8C8C84",
"rX c #9B8D82",
"tX c #958A82",
"yX c #999487",
"uX c #95978D",
"iX c #A78A85",
"pX c #B48C87",
"aX c #A49484",
"sX c #A49A8B",
"dX c #AC9B8B",
"fX c #A89787",
"gX c #B5988B",
"hX c #A99B92",
"jX c #B79A95",
"kX c #A88F91",
"lX c #ABA389",
"zX c #B6A48D",
"xX c #A9A396",
"cX c #B4A394",
"vX c #BCAB9C",
"bX c #B9A796",
"nX c #BDB19A",
"mX c #B6AEA7",
"MX c #CC9387",
"NX c #E2968C",
"BX c #C5A89A",
"VX c #CDAD96",
"CX c #C29EA1",
"ZX c #C8A9A5",
"AX c #C8B7A7",
"SX c #D6B8B6",
"DX c #D1B0AC",
"FX c #E4B8B5",
"GX c #E6ADA4",
"HX c #D8C2B4",
"JX c #ECC4BE",
"KX c #E8C9C7",
"LX c #F6D2CD",
"PX c #FDE8E6",
"IX c #FFF3EF",
"UX c #D9C7C7",
/* pixels */
"H.c.k k Z >.J.%.jXtXtXrX!.w.K.nXzXcX>X;X^.u.aX).-XR.o.w.*XR.U W.vX>Xq.&.#.:.w.:.:.>.;.' :.V 3.<.Q hXvXE.).r./ / { 2.<.e.6.] x <X",
"I.H.V.G.F.~ Z S.fX>X=X*XU.T aX>X>X3X).*X&Xu.U.U.-.0.3XbX3XR.%.3.vXdXsX~.J.w.:.:.;.o.o.o.` 8.q.%._ ).iX9.-.-.X...d.0.E Y $.M g i.",
"wX5X'.V.c.c.k ~ ).@X+XR.%.y ] :X*XJ.Y.T.9.P #.1.Y.iXgXBXiX~.1.+.bXjXbX3X;X).).ZXjXjX' r./.*X>XR.p.@.9.q.!.$XW.0.+X<X+X3.i.-._ V ",
").).'.'.H.c.c.c.V.D.*.Q.rX&XY K 3X).S.J.8.Q.!.V ~.BXgX3X`.).w.+.fXCXMX,X`.T.`.DXPXIX_.aXQ.q.d.E.-.B w.=XR.i.0.3.J 3.4XlXaX;Xr./ ",
"D.).U.+.T.MXH.v.c.b.'.VXbXjXiX).#.J.F.F.,XzXBX@X3XBXMXpXpXpXT.*.3XMXBXMXpX3X3XDXJXIX:.iX*X*Xd.0.i.K +XlX<X+Xd.5.G +XAXAXbXlXQ.{ ",
"V R.9.9.cXgX'.H.v.v.{.8XgXiX`._.:.Q A '.VXzXBXgXgXKXLXKXKXKXZX'.gXFXLXJXJXJXFXZX_.DXC _.hX>X$XW.0.] lXlX1X!.p.;.J nXHXAXVXzX)._ ",
"h &.3.3.rX-X).L.V.c.v.}.5X3XiXY.#.m F.MXVXgXzXBXLXFXBXjXpXpXZXLXLXFXpX`.'.`.ZXLX_.V l ' -XrX>X=X0.E lXlX=Xq.@.V -XZXAXVXVX<Xd.v ",
"n 4X=X+Xu.i./.T.S.{.C.v.C.'.~.J.#.R G.NXMX5X3XLXBXpXiX).`.rX~.T.Y.5X`.D.T.pX`.ZXSXV ; ; U.tX$XE.8.Y lXlX+X8.o.' SXvXnXzXlX=X0.p ",
"K.zXfXrXyX/.U %.~ VXNXC.x.C.G.S.! ~.G.MXMXMXGXLX;X).(.Y.rX-X).#.n #.!.`.pXiX3XT.KX_.l : V -X-XW.#.l 9.0.#.I x $XSXxXdX4X+XW.] p ",
"~.gXcXaX-Xu.3.E.e.GXVX{.N.x.C.V.P.'.F.{.8XpXLXCX).>.f B p.i.i.` #.~.3XgXiX3X).#.kXZXl - * E.^.p./ Y.iXY.E.%.Y >XnXnX4X*X>X8.U e ",
"+X<XhX;Xp.i.:X+X2XVX8X{.].c.x.v.[.H.c.NXMX`.PXpX:.l + - w { ;.p.hXvX<XaX;X).J.V tXKXC f + C 9.' D.T.`.,X/.:.$.sXcXlX<X@X-X:.q.I ",
"8.R.*XY.;.#.*XK.gXMX].[.[.C.B.B.].].c.{.'._.LXjXC O % * 3 t B hXbXhXaXfX;XY.' V kXSXl 0 + + _ U.`.'.5X~.1.9.3.:XlXnX<X<X:.fXcX!.",
"G 3.J.w.:.Y./.#.GX].x.m.B.B.B.B.B.N.v.{.wXwXCXSXl ; ; t i t t ' /.tXfX-Xi.q.U o.SXqXt t f O ) >XS.8X8X2XL.J.] i.gX4X@X3XCXpX).J.",
"} <XzXBXbXdXrXw.GX].N.m.n.n.B.n.n.n.x.[.'.Y.>.KX_.C n C C / B C K :./.).Y.:.V qXSX' t - - # w $.Z 5XZ.Z.2X~.:.*.2XL.L.pX).`.~.Q ",
"AXAXBXvX@XJ.+X=XvXpX[.v.m.M.M.M.M.M.m.C.D./ ; r.UXY.V A >.SXkXt c c ' i.Y.o._.KXp.C 0 0 # # # y j Z.^ .X9XP.L.F.L.I.'.5XpX`.Y.!.",
"xXfXrX*Xq.Q.=X%.=X4X*.k v.B.M.M.M.M.m.v.A : f A wXLXD.:.ZXUX/ / V c b V #.(.LXtX/ s t 0 0 # # 1 m 5XZ..X6XoX2X'.2XOX8XP.pXqX:.Q.",
"+X&XW.h.0.R.0.<.+X0.W J.'.].v.B.M.M.n.x.f : l A >.wXCXGXFXY.>./ V I / / qXKXkXN c t w 0 0 > # 2 Z 5XL.F  X9X7XXX7X X9X5XD.p.p.P ",
"Y 8.3.0.9.J $.hXxXh.3.@XT.'.H.H.m.n.n.b.: - C >.Y.T.FXFXwXD.r.;.T o./ qXUX(.B V B i w 1 > > > 2 ~ V.F 9 F oXoX7X7X XI.P.o.;.3.G ",
"7.Y Y w.ZXiXq.-XW.<.W.jX`.L.`.{.].v.v.b.; s / CXPXPXLX`.FXwXY.;.o.o.qXLXqX/ V i t q w # > > * 2 1.oXXX9 F F oX7X7XOX2X'.R.p <.<.",
"3.y T ZXZXkX;Xi.$.I 3.q.!.@X3X).P.k S & / ' UXPXPXIXFX`.ZXKXqX:.&.iXPXkX/ C t y 3 < 0 0 0 1 - 4 1.XX^ h E 1XlX6X9X8XP.4XW.W 8.!.",
"Y H >XjXSXiXiX*X` U 8.0.6.e.h.s.x % ; C >.kXLXIXIXHXFXpXD.`.LX`.3XLXhX' C / s e e e u t t 0 0 x Z.F 9 $ h |.K.1.L.Q z !.<.|.1Xw.",
"H :X>X;XZXdX;XrX/.] -.d.0.,.,.D @ @ t s / qXSXPXPXkX`.D.>.A '.LXKXrX;.p.' B _ Y J N ) t - = ; g XX XF , h F 1XL.*.8 x R.+Xe.W.:.",
"+X:X:X*XfXdX:XtXW.' V _ _ _ a # > w w / / ' / CXjX>.o.o.V Q '.D.:.p.p.g.-.=.d.0.u.-.;.) c l b ! 1.oXF 9 F F K.K.C - < Q.rX5.O.:.",
"R.:X-Xh.hXyX#Xs.5._ ' /.tX| - # w s / ' ..>./ D.Y.V N N m ~ P.~ *.9.r.(.i.6.<.} 2.=.} ' V m W ~ ^ j % j XX&.1.I 0 0 , d.>X/.@.' ",
"I Q.Q.d.#X#Xh.E Y r d.mXtXt - s ) ) / X.0.0.V I I r p y g g l m o.5.d.i.} ] <.<.<.2.=.` +.J.~ L. XF 9 F oX2XQ t - t 3 ] hX).u.K ",
"R T %.7.e.<.P <.] T N rXi 2 i ( ) z.z.z.0.0.P E _ K L H x x n G T Y _ 2.%.} e.|.#X<.9.i.1.P.5XOX7X XZ.Z.XX! B 0 - w 1 M cX-XW.9.",
"Q.g x y v W.cXgX>X).E.q 1 ( { { a.k.k.k.7.7.P ] } _ ] ] %.&.E P K L _ 2 L +X+Xe.s.$.T O.1.5X9X.X XA.OXP.Q ; 0 q d 1 # 0 hXaX-Xu.",
").O.y %.bXAXAXzX;X4Xv < M a a ( ( X.[ ..] $.Y T i i v y p 3 3 3 e e 5 u <.<.<.} &X7.%.K.S.^ Z. X7X XZ.V.& - t D a , # 0 W.rX>XW.",
";X3.%.AXAXcXBXbX4X,X&.6 d p d d q d d d d y t 5 2 r v J _ _ X.| [ ( [ P 7.|.e.=XmXu.p.!.P.OX.X X XA..XZ.z f f * p 3 + 1 ' qX&X+X",
"$X] E BXbXbXfXgXjXfX=XW.] i 3 @ 2 2 3 3 3 2 t r 2 p v _ u.^.k...f.t.[ P 2.6.|.lXmXt.9.@XXXOX.X.X X X8XL./ - 0 e 3 3 @ # s (.d.!.",
"7.} ] fXbXjX,X<XfXlX=X=XR.U p e < 6 q q w w s B p D H L =.5.l.,.[ [ ..( 7.2.,.h.hXt.@.K.XXoX.XOX7XI.S.z : O @ @ @ , > q t p.s.7.",
"2.#X$XQ.jX4X4X@X=X@X@XQ.E.` y 5 2 G Y [ [ ..} =.D D L | ( K ..,...y.4.,.6.| 7.yXsXg.@.8.@X6XoX.XL.~ g & O o = 3 @ . @ 0 5 :.g.$.",
"+X=X:XQ.Q.dXrX,X,XJ.w.w.8._ K K J K ..X.....,.,.D | [ [ a i  .t.k.^.p.=.f.=.tXmXuX} ] 0.d.@X1.e.<.T & & o % * e # X . # i d.u.{ ",
">X>X>XR.8.E.aX*XY b v b ` d.=.| [ 2.( ) y.s a y.| }  .,.H s z...(.k.f.4.%Xt.xXmX&X<.2.7.s.s._ 6.[ _ ; & O $ - s # # i =.] d.{ (.",
"Q.!.d.%.J I Q.3.Q.fXcX>X9.&X6.h.4.2.w w y.y.z.l.X.,.a.t.a u ..z.t.f.a.f.#X,.xXmXsX7.t.g.2.2.H 6. ._ ; : o $ w B H > B u.} M v /.",
"0.%.T T x ] hXcXAXvXcX:X8.$X} 2.} ..) ) ..X...z.7.a.z.,.X.) ..( X...t.j.f.h.%XuX|.] } 4._ _ H  .} ` ; ; % * 0 a w > a 4.-.] 5.p.",
"w.q.R.R.-.9.yXvXAXbXdX:X} ] _ }  .4.z.,.y.z...X.l.%X%X|.y.,.z.y.j.|.|.eXa.,.,. .L s.s.6._ _ P _ { _ ; g : % 0 a # d i u.0.0.T T ",
":X:X:Xd.0.=.!.dXAXnXcX=X&.Y 6.h.t.t.k.a.,.a.y.) y.|.|.|.|.k.l.l.y.4.&XeX&X&X4.h. .f.g.^.#X&X^.=.5.@.; g & < t a w w u ^.Q.0.b ;X",
"bXdX=Xg.0.$.0.<XcXaX!.&.] $.h.^.s.7.y.k.s.6.,.D ,.|.|.|.|.|.|.|.%Xf.2.,.6.} X.2.6.u.^.:Xg.u.#X0.i.9.g g 4 r i u # 1 a g.=XR.-.bX",
"xXhX>XtXp.$.&.d.Q.e.O.Y 0.W.W.d.$XuXj.e.|.a.,.D } 7.|.a.a.s.s.s.t.6. .[ | e 3 L =.=.7.6.0.2.u.3.5.J.m z & 2 s a w 1 i W.=XQ.;XAX",
"sX;X-XE.3.p.3.3.<.&.E ! $X+X+X|.+XW.R.7.E $.y <.Y ] 2.} _ H d 3 3 1 } _ 3 X 3 H Y $.7.3.e.$.2.E R R m m 4 $ s B s u i sX:X*XcXBX",
"yXi.W.3._ Y v 6 y J <.Q.d.+X#Xd.d.@.E ] E Y y $ 6 G E } <.<.7.6.7.=.W.J # r W Y | ] q.W.d.<.&.] 8.w.Z Z % < 5 B ) s P cXnXlXcXZX",
"~.8.T v =.0.W.3.Y W b &.} &.} ] ] <.8.1.1.<.G E 3.3.%.8.3.<.e.=X&Xe.M 2 $ @ < u ] 3.R.W.E Y W } 9.w.Z m & 9 6 N ) u N W.R.R.$X*X",
"3.q.hX9.3.Y v h I T 8.W.U 2 6 2 5 7 4 y E w.g E ! y o = < 7 <.4XyXrX3 $ r @ X < 3.7.#X+Xe.+X7.<.3.*.m z j g 7 T ..B e c T I N !.",
"*XR.fXw.Y U W.q.T O.E #.5 = @ + o o = 4 9 %.G n c = % 5 4 4 y <.0.#X3 X 3 2 @ P s.d.yX:X:XxX+X<.5.:.Z m h W h I b i $ o % o 7 aX",
"aXq.fX0.&.3.=XcX&.&.&.Y J e o * X + 2 5 < &.&.+ O % ; e 6 p h ] 0.W.t + 2 3 * [ 6.6.#Xg.#XxX+X} 0.w.Z m m K.R V 3.x 4 %   X o c ",
";X@X!.3.0.%.&XdXq.] R.%.&.r - * X 0 e i v 9.q.$ $ i i i H E E 2.g.eXM 2 a M t ( 7.k.eX#X|.&Xe.| 0.w.Z z m K.Q R R.M < 4 = % 6 /.",
"*X*XR.8.w.%.$X&Xd.w.>X8._ v = i X # - M Y $Xs.5 = I M L $.d.d.j.eXsX[ w L L + P =.k.&Xf.|.yX#X,.g.1.Z z z 1.W W %.x 4 8 % % x Q.",
":XR.d.-.b d.d.8.O.rXcX0.] M y i * * 6 ) { eXj.e t ` U ] 7.&X&X&XeXmX{ t U | X L ,.y.k.g.&XxX#X<.6.-.m z z K.R W 3.7 4 g & & x !.",
"$XE.0.&.@.q.8.x R.Q.:Xd.@.Y M N M _ N P y.tXp.= = T Y @.0.yXuXeXxXmX5.M U L @ L y.a.f.u.yXxX#X2.0.$.z g z J.E E e.G 4 8 8 & n @X",
"&X0.=.=.] { d.b yXR.$X&.8.` T T I O.] _ ;.p.0.6 4 T T &.q.yXuX&XmXmX2.s =.N X L 4.a.j.j.eXuX#X+Xt.O.n z z 1.| E e.G < 4 r < y +X",
"i.5.| N _ g.mXu.:XR.Q.%.3.&.O.O.! ! O.T @.q.i.= 4 I Q &.e.:X:X#XeXuX6.v _ y @ | [ [ 4.t.k.h.6.a.[ ( l z g %.] E h.P 5 6 y 6 i 6.",
"M ..M a { { { M U M M &.G +.*.*.1.~ ! %.8.:.;.8 7 I O.%.w.R.e.q.|.|.,.d r < @ $ 2 s  ...D D a H L J l z l V J H ( i s ' { a u u ",
"u.xX-X..M ( ' _ _ } I O.I +.&.! ~ *.! ! J.bXhXR U Q &.#.&.*.O.&.z.,.y.L H u e c r L t. .(  .| d [ _ N m g l r 2 v i i _ { ) D q ",
"g.yXu.=.M L =.5.} 3.] b O.W W n ! 1.1.*.1.>X;X` T T o.o.O.&.O.&.7.} a.L } P 7 C c @.&Xj.t.h.e.} 2.&.V m m m N c v c t ) X.( ) a ",
"@.rX=._ L ( _ ..L M U M I 9 % % j Q ! Q #.8.@.` K I ] O.&.&.Q ] | L |.D M ] ' o._ -.tXyXyXyX^.d.0.3.m z V Q Q N V B t s ) D u q ",
"b =XT x v J K } { ' _ i = $ % 4 n n W m Y %.B L N ) M s K J N ` | L 4.1 < e ;.:.#.q.).=XyX#X=X+Xq.K.Z z m ~ *.#.@.' N M ( i p d ",
"y T 4 % o X e 6 6 + e J t @ + = & 8 8 b b %.] * + . X @ + * = = c 2 { X 2 + ; 8 ; m U &.0.0.e.<.%.L.j Z Z Q Q R n r ` p.K K 6 e ",
"8 ! T N %.J Q.yX2.i L $.M X     X % o o N ' | r . . . . .       6 y J X + % V V *.w.Q W G G n G h ! z m Z j & j z 7 l W.<.W.Q.<.",
"n R.1.T &X&.R.cXfX=.3.=.J @ X + X O + o I d.=.M   . . . . .   X b x #.X : o 5 n T 1.! Q W ! W E E n g j m m 8 : 8 I @.>XyXxXBX;X",
"x d.3.T #.x ! *X4X<.e.3.Y * @ y e K v = ` aX8.i @ O @ X . @ @ X Y Q 8 % % % % x n ! ! Q +.#.] ] W ! g g Q R K.q.J./.sXrXyXyXdX).",
"r 2.3.i.$XQ.!.$XQ.aXcX%.] d.i.=.-.=.0.i.,X@XR.#.=.{ y. ._ _ M c %.1.4Xw.' #.8.#.&.0.J.1.1.! 0.0.%.K.Q.J.#.n !.~./.U.^.&X<X<X*XQ ",
"u _ | @.w.Q.+X*X@XbXBX>X*X:Xd._ 4.:X>Xq.!.K.4X4X*Xg.(.=.%.[ v <.K.zXBXgXcXZXlX=XK.K.~.3X,X#././.d.q.w.8.Q.q.9.rXrXE.0.$Xj.E.w.n ",
"u e v M @.Q.@X~.4XBXgX@XR.w.-.v yXxXvXfX+.K.bXdX>X/.0.M $.<.v 4X4X1.4XbXzX<X4X:X@Xw.w.3X3XO.g.0.6.9.w.@XcXQ.;.u.E.9.u.u.7.0.U g "
};
