/* XPM */
static char *_f834843d65e4e36b845236adb4552d0G35duW6H6RLJh8gi[] = {
/* columns rows colors chars-per-pixel */
"64 64 246 2 ",
"   c #050100",
".  c #0C0400",
"X  c #0D0A03",
"o  c #0A0B06",
"O  c #130C04",
"+  c #1B0C02",
"@  c #140E09",
"#  c #120500",
"$  c #1B1105",
"%  c #15120B",
"&  c #1C140C",
"*  c #1D180D",
"=  c #1A1611",
"-  c #1C1A15",
";  c #1E1E19",
":  c #141410",
">  c #23150B",
",  c #25190D",
"<  c #2B1B0C",
"1  c #231304",
"2  c #361B0A",
"3  c #231C14",
"4  c #2C1D11",
"5  c #211E1A",
"6  c #2A1613",
"7  c #321E12",
"8  c #381714",
"9  c #210A00",
"0  c #1F211E",
"q  c #252216",
"w  c #2C2215",
"e  c #24221D",
"r  c #2B241C",
"t  c #2D291D",
"y  c #342415",
"u  c #33251B",
"i  c #3D261A",
"p  c #332A1D",
"a  c #3C2B1B",
"s  c #382915",
"d  c #3E311E",
"f  c #29200F",
"g  c #242522",
"h  c #292621",
"j  c #2C2A23",
"k  c #2C2D29",
"l  c #262823",
"z  c #332D23",
"x  c #3B2E23",
"c  c #342D27",
"v  c #2F302D",
"b  c #353126",
"n  c #3B3225",
"m  c #34332C",
"M  c #3B342B",
"N  c #3E392E",
"B  c #343531",
"V  c #3C3A33",
"C  c #3C3C39",
"Z  c #373832",
"A  c #4A2B1C",
"S  c #43281B",
"D  c #512C1D",
"F  c #51321E",
"G  c #4A2C23",
"H  c #462C22",
"J  c #542D24",
"K  c #562F27",
"L  c #433424",
"P  c #4B3426",
"I  c #42362B",
"U  c #44392D",
"Y  c #4B3B2B",
"T  c #483727",
"R  c #543325",
"E  c #54332A",
"W  c #5B342B",
"Q  c #533C2C",
"!  c #5B3827",
"~  c #433C33",
"^  c #4A3D33",
"/  c #453C36",
"(  c #553D32",
")  c #523730",
"_  c #613A2C",
"`  c #613B31",
"'  c #3C4039",
"]  c #55422E",
"[  c #444135",
"{  c #4C4134",
"}  c #45433B",
"|  c #4B453B",
" . c #4C493D",
".. c #47493C",
"X. c #534435",
"o. c #5B4534",
"O. c #544A35",
"+. c #5A4A36",
"@. c #52463B",
"#. c #544A3D",
"$. c #5B4B3C",
"%. c #59463B",
"&. c #5C513D",
"*. c #535238",
"=. c #48412F",
"-. c #634C3C",
";. c #634935",
":. c #6B523D",
">. c #62523E",
",. c #704F3E",
"<. c #434542",
"1. c #4C4B43",
"2. c #4C4E49",
"3. c #474843",
"4. c #544D43",
"5. c #5B4E43",
"6. c #554A45",
"7. c #4E514A",
"8. c #545245",
"9. c #5C5344",
"0. c #55544B",
"q. c #5C554B",
"w. c #5C594D",
"e. c #5A594B",
"r. c #5C5C53",
"t. c #575955",
"y. c #4E5251",
"u. c #635444",
"i. c #695542",
"p. c #635845",
"a. c #62564A",
"s. c #645A4C",
"d. c #6B5C4C",
"f. c #6B5649",
"g. c #735C4A",
"h. c #645D53",
"j. c #6B5E52",
"k. c #625D59",
"l. c #6D594E",
"z. c #5C6259",
"x. c #6C624E",
"c. c #66604E",
"v. c #79624E",
"b. c #636155",
"n. c #6D6253",
"m. c #64645A",
"M. c #6C655A",
"N. c #6C6A5D",
"B. c #736455",
"V. c #7A6352",
"C. c #736956",
"Z. c #726659",
"A. c #746A5C",
"S. c #7B6C5C",
"D. c #7B6957",
"F. c #7A715E",
"G. c #5F6362",
"H. c #646662",
"J. c #6C6C63",
"K. c #666B65",
"L. c #746D62",
"P. c #7B6E62",
"I. c #766760",
"U. c #6E7165",
"Y. c #6C706A",
"T. c #747165",
"R. c #7C7264",
"E. c #74746B",
"W. c #7B756A",
"Q. c #7C7A6D",
"!. c #77796B",
"~. c #757B74",
"^. c #7C7B72",
"/. c #757671",
"(. c #6C7270",
"). c #826C5B",
"_. c #846B57",
"`. c #87735D",
"'. c #80684C",
"]. c #837465",
"[. c #897664",
"{. c #82766A",
"}. c #857B6C",
"|. c #8B7C6C",
" X c #817965",
".X c #927C6C",
"XX c #847D72",
"oX c #8B7E71",
"OX c #806F65",
"+X c #7C8178",
"@X c #89836F",
"#X c #92816E",
"$X c #858274",
"%X c #8C8274",
"&X c #83857C",
"*X c #8D857A",
"=X c #8B8A7D",
"-X c #8A8977",
";X c #938474",
":X c #9A8674",
">X c #9A8976",
",X c #92867A",
"<X c #948A7C",
"1X c #9B8C7C",
"2X c #938A76",
"3X c #9C927E",
"4X c #A28D7B",
"5X c #A2917D",
"6X c #A9947F",
"7X c #878A82",
"8X c #938C82",
"9X c #9A8E81",
"0X c #939284",
"qX c #9C9184",
"wX c #9C958A",
"eX c #99978A",
"rX c #9E9C92",
"tX c #8F9289",
"yX c #A39484",
"uX c #AB9A86",
"iX c #A3968A",
"pX c #A59A8B",
"aX c #AB9C8C",
"sX c #A89784",
"dX c #B39F8A",
"fX c #A29C91",
"gX c #AA9F92",
"hX c #B09C91",
"jX c #A7A28E",
"kX c #B3A18F",
"lX c #ACA294",
"zX c #A7A397",
"xX c #B4A494",
"cX c #BAA995",
"vX c #B5A99C",
"bX c #BBAB9B",
"nX c #B7A798",
"mX c #A7A9A4",
"MX c #B7AEA2",
"NX c #BAB4A8",
"BX c #C1AC98",
"VX c #C4B3A3",
"CX c #CBBCAC",
"ZX c #CAB8A6",
"AX c #CDBFB2",
"SX c #D3C6B6",
/* pixels */
":Xf.Y L ^ j.M.n.lX1X>X1X].C.|.nXvXzX,XqX].].1X;X#X].$.D.>XS.#.|.cX>XD.:.p.B.n.n.r.q.r.q.h.5.j.g.%.xXvX{.%XB.U ^ s.j.n.A.A.5.I 9X",
"uXcXyX;X}.9.{ j.iX<X1X.X].$.qXyX<X9X<X<X;XV.R.).D.S.>XnX<X].s.n.bXkX6X#XF.x.a.w.4.4.| 6.9.h.P.l.@.%XqXZ.j.a.9.j.R.P.5.6.s.^ a P.",
";XuXnX;XR.4.~ s.,X|.|.;Xf.a d.@X;XR.OX|.C.%.u.B.S.1XnXMXyX%XZ.&.cXcXkX5X1X;X%X{.j.6.~ N.W.,X9X{.Z.a.B.S.{.;X}.Z.oX9XoXA.P.d.@.X.",
":X|.@X%XP.<XMX{.u.S.V.].1X1X%.X.;X1X].C.d.|.].Y :XbXdX1X1X>Xn.u.jXcXcX>X|.R.].L.J.h.h.rXXXI.].].j.U S.,X{.P.S.n.^ B.pXaXiX,XB.@.",
"d.[.C.j.}.MXyX,X}.%.|.cXcXkX;X|.9. X|.C.;XxXZX.XyXBXhX>X|.}.Z.u.5XcXcX1X1X@X|.R.q.| } 8X8XoX].B.P.X.%XlX1X|.S.n.L %XCXAXvXlX}.$.",
"X.|.Z.A.gXiX9X%X).D.uXcXkX1X1XoXV.%.i.|.nXcXVXxX5XMXbXpX#XR.C.&.5XkX5X:X;X|.A.q.6.j c W.fX9X,X|.Z.u.aXnX1X|.S.d.{ bXSXVXbXbX2XX.",
"d d.d.u.qX*X{.{.B.1XVXcX5X>X1X).d.T ).cXcXxXxXaX;XnXnXyX1X|.S.u.`.aX1X[.D.A.Z.h./ = - / 8X8X,X,XI.u.xXaX,XS.u.] ;XVXVXVXVXyX].T ",
"{ 1XqX*XA.P.XX|.Z.uXCXxXaX1X;XS.f.5.dXnXnXsX5XqX|.sXiX1X<X<X%Xu.u.5X;XR.D.1X8XXXI - % > R.8X,X{.Z.%.gXiX;XB.u.X.CXnXbXnXhX;XS.L ",
"].xXpXqXwXoXX.d.d.VXVXcXyX;XP.D.u.1XaXaXcXxXyX;X;X{.|.}.<X*XoXs.a i.].;XgXqX*XL.j 5 : @ ~ 8X,X{.a.^ s.S.d.X.S ;XCXcXaX>X9XOXu.L ",
"oXgXxXyX%XA.M.].D.VXVX1X:X].C.a.].5X1XyXkX9X<X1X%X9.w n Z.{.P.| u.%X5XpXpX9XXX4.j ; = @ e I.*Xn.( Z.pX{.S.d.$.4XVXxXaX>X.XB.$.i ",
"|.1XaX%XS.S.1X%X<XBXsX:X;XR.Z.Z.,X#X,XlXyX;XiXXXs.* @ q n 4.5.W.pXvX3XaX<X%XM.~ h ; - : @ M I.q.W.M.9X}.;XC.5.uXbXdXqX>X#XZ.n.X.",
"C.}.;X].s.s.;XS.aXVX1X:X1XS.a.<X>X1X1X9X<X,XoXb.p X & & q c V gXMXaXpX<X<XL.0.h g l ; - % = 6.P.XXP.,X,XA.B.d.yXnXbX>X<XC.iXxX].",
"P V.F.C.Z.F.|.f.VXuX1X1X%Xn.P.{.].|.,X;X8X<Xh.m X O - c c h b | $X<XiXqXL.N.V h g l 0 : ; : 1.,Xq.z M I.oXZ.$.S.sXsX:X>XnX1X,XS.",
"f.1XkXbXlXaXqXD.CXuX1X;XZ.X.h.M.Z.A.%X,X*XP.V X @ h l h m h ; j #.q.XX$XT.q.M k l g g 0 : - c k.3 & & #.,XoXd.d.<X].].xXyX1X}.9.",
"ZXVXbXbX;XS.|.:XcXsX1X|.X.n  .9.n.P.P.L.M.M X @ 5 ; m Z B C l B c N #.R.L.4.k k k l g 0 ; - - j = , 3 x ,X%XS.s.B.g.S.hXxX9X{.R.",
"cXsXyX;XS.|.1Xd.5X1XB.L a.M.s.| Y @.q.h./ X X 5 h Z m B v C k v ~ N m ~ 0.M Z v k k g g 0 0 = g 3 X 3 ~ ,X;XOXg.%.|.OXZ.iX%XZ.XX",
"|.%X}.].C.].C.x.|.S.X.R.;X;X;XqXsXyXfXk.@ o ; B V c M V 2...3.C ' ' C v v B m v k v h g 0 5 ; 5 5 = = c oX9X|.Z.$.-.{.g.n.L.I.#.",
"#.B.B.C.Z.Y f.aXaX XV.;X].F.|.%X,XsXP.; o : g Z ~ / b t } 2.t.y.<.3.<.B e g k V m v h g g g 0 g ; - q q q.{.|.).B.B.S.oXq.j.M./ ",
"Z.@.@.Z.bXqXS.%X|.d.].lX1X].*X9X1X9X4 o - 0 C 3./ n > a ~ s.m.0.2.2.7.7.' C Z m v h h g 5 5 - - ; h - r b #.qXiXsX|.OX,XR.I s.a.",
"n.L $.NXNXyX>XR.u.X.n.P.].%X<X%XXX~ @ - k <.C q.p y 5.>Xd.f.k.q.3.7.0.7.Z k c t h h r h e 5 5 5 ; ; e c 4.-XvXlX9XoXC.yX}.^ I.XX",
"%.^ 9XxXAXyX1X;Xa.@.B.L.P.W.{.L./ o g k <.<.2.6.^ L .XsX:.P T x ' ..0.2.V b ~ m c c c c h h j c j e % ; ..N.b.$./ p t W.A.|.9XZ.",
"{ ,X9X<XbXaX<XqXR.%.j.P.A.h.h.6.- - h C 3.C <.h < i [.V.] S Q x [ 0.r.0.| ..4.} @./ ~ c w q 5 5 q ; o - k c j k t * n {.}.A.].j.",
"%X,X<XoXpXpX<X1XoX5.@.@.6.6.~ % 5 g B C <.2.5 6 O.Y :.Q ] ;._.+.4.N.U.N.h.w.L.R.L.M.h.6.M b M z 5 - ; - b Z l e e 5 q XXqXS.9.C.",
"{.9X;X{.gXyX|.P.Z.6.5.XX7X0.5 5 h B <.6.y.t.V / u.T L o.F ;.[.$.8.N.A.T.W.N.M.q.h.s.a.6.U N ~ c c 5 X e Z l v l ; e 3 T.9X}.u.%.",
"X.}.|.{.;X;X].5.%.x R.MX*Xc ; m <.3.3.6.J.J.~ N =.y a d a a a T 4.m.T.L.s.e.s.s.n.q.s.s. .U  .N j j o - C B v 0 ; l h 8.gX%XS.^ ",
"@.6.s.B.S.j.X.d.5.$.{ qXM r V 6.3.a.k.K.H.N.| #.$.| O.{ L L U { 8.#.8.b.b.s.R.$XQ.S.Z.N.e.8.4.#.N c = 5 v B B k e k q ~ lX<X XV.",
"oXx L x T [.xXjX1X;XR.p q 3.0.0.J.^.W.^.N.M. .9.e.*.8.9.e.w.4.{ ..[  .p { *X-XR.T.e.*.e.4.q.#.0.4.I 5 3 0 ; g h B e - z gXiX;XR.",
",X5.L j.cXCXZXkX,X9XI w / ~ ~ 1.4.4.8.h.e.h.#.6.N N N m c t r j b z t N h.M.h.e.*Xn.M.M.[ z t  .1.N h 5 = 5 k C Z e - q W.9X<X|.",
",Xj.s.ZXCXxXxXcXyX;Xd.a b M b M j j M b c b j r q b V [ 3.8.0.0.w.1.8.=.M.Q.T.0XMXN.N.+Xh.[ ~ r.6.b 3 % X @ 5 h m h = 4 1.8XoX,X",
"oXu.$.bXxXnXsXkXdXsX;X X$.M q % j j j w r t n n t M V 2.J.^.E.0.T.U.8.' m.M.^.jXMXN.U.-Xb.....m.q.M + O X = 5 h e j = 6 M oX{.XX",
"M.a.u.uXcXkX:X5XaXuX1X<XW.#.M z e j j r p z M I N ~ } 0.r.J.E.M.7.e.w.1.N.b.h.E.zXm.0.N.b.r...0.h./ % +   # - > @ 3 3 j c I.I.I.",
"d.%X%X|.aX5X5X#X:X;X.X|.].4.n t r } 6.0.9.q.q.k.V ~ ..q.1.| t.k.r.z.b.z.N.8.L.eXrXQ.w.N.k.m.3.0.6.6.6 > . @ 6 r % . 6 h 5 k.W.q.",
"#X;X<X|.}.aX9X;X1XS.C.Z.M.6.#.| / / q.q.r.0.z.r.[ 8.8.9.~ Z G.K.Q.$XN.m.T.h.0XNXpXe.e.N.L.^.0.H.r.4.6 8 + @ 6 j = @ O = M P.P.a.",
"1X1X<X].B.{.sX>Xo.Y T Y 5.P.s.4.e.k.2.2.K.V C H.8.w.r.z.~ V k.t.&XE.Q.b.XXE.rXNX=X0.r.L.J.E.6.m.r.6.8 8 + > r I 5 3 M k.q.W.q.W.",
".X].R.x.^ X.|.d.|.uXbX1XZ.,XN.W.b.k.h k K.G.K.(.7.z.U.K.C b t.z.K.E.Y./.&Xr.zXNXfXL.L.Q.k.b.} m.t.5.8 6 $ 3 c ~ / ; ~ L.a./ I oX",
"C.d.$.$.L 9.zXxXVXvXaX1XZ.$Xr.h.t.r.3.3.t.y.z.z.K.K.z.z.7.2.t.2.7.0.m.^.Q.J.&XeXW.w.r.m.1.4.} z.q.5.8 8 9 6 h M l 5 / m.k.5.B.I.",
"D.S.{.].j.n.iXbXCXvXaX>Xu.e.4.e.r.m.z.z.K.G.z.7.U.7X&X+XG.z.G.K.~.+X+X7XJ.J.w.r.8.m.W.N. .8.1.*.0.%.8 S 6 > h / 5 v C T.I.B.@.$.",
"1X<X,XR.Z.h.{.pXCXvXxX2Xs.*.A.W.J.U./.Y.z.U.H.' U.+X+X+X+X+X(.(.H.H.7XtX&X7Xm.T.M.T.Q.+X$X=XW.e.M.a.8 S 6 4 z V e l c XX*XI.Y :X",
"vXpX,X{.A.h.A.3XxXyX Xu.&.c.Q.}.T.m.m.Q.U.U.z.' K.+X+X+X+X7X+X+X&XE.t.m.J.0.e.m.b.N.+X$X$XN.+XF.R.B.A G u z b m ; ; V W.<X].v.cX",
"hXgX1X<XA.s.a.R.|.F.p.O.C.+X}.!.$XrXQ.U.+XU.c.' e.K.+XK.U.U.U.U.Y.J.b.0.4.m q ..b.c.C.C.L.s.T.n.C.C.W E 7 z M ~ k e V $X*XR.>XZX",
"pX<XoX{.Z.A.n.n.n.9.&.p.@X@X$X}.@X XR.C.&.r.N p. .8.c.e.8.[ t t q q w.8.t X q [  .s.C.x.C.p.c.*.O.o.W W y , c ..Z m Z pX<X;XnXcX",
"9XOXoXj.6.#.U p d +.p.|.R.@X}.!.W.a.&.&.O.O.d f d U #.e.c.c.C.C.M.N.Q. .3 t *. .&.e.C.@X@Xx.p.&.n.C.` ` < w p N ..Z } MXMXgXxXBX",
"oXg.9.U s.L.].n.{ $.X.u.e.9.8.s.u.d.C.C.C.x.=.O.d.B.d.Z.C.x.F.@X=XA.U p , $ q n e.n.Q.R.*.*.O.e.n.V._ W 2 y y / [ b { {.R.].;X#X",
"v.Z.gXZ.j.$.U L $.X.x.|.+.p b w p a y a +.V.d >.$.L $ < f d x.3XqX<Xp * d * X q x.N.@X@XC.@XC.&.x.v.` W a H H O.p. .z I 5.X.Y [.",
";X].yXZ.%.{ }.S.$.-.u.j.w , % , + $ < y s c.] T L 7 > y f w d x.C.-Xw O t q * ..U.R.eX<X2XjX@Xc.n.x._ J A +.L ] Y n 4 + > 1 a yX",
"yX].qXD.s.j.1XxXa.d.u.X.X.x O 3 X > r u s p.p.$ + 6 r u s d =.9.A.XXz * t q q 8.N.N.@X!.-XjX@Xe.N.S._ _ ! `.+.] x.n y , # # + L ",
">X#X{.Z.D.s.*XuXD.u.].d.a.z - q O h c c U Z.F.< & M M N =.8.*.x.W.=X| q M [ j 1.z.+X0X!.+X-X+X*.Z.V.W K R `.;.o.].Y 7 y < , a |.",
":X|.].n.B.M.|.;X[.Z.1XZ.#.I 8 c O 3 3 ~ #.$XP.t 4 @.U #.s.T.T.+X0XrX6.z 1...- ..z.!.-X!.+X3X@Xc.Q.v._ K ! v.] ] f.L y a > < H |.",
"<X].R.n.^ ].F.C.5.sXxXZ.a.U c M , 3 t | 0.8XW.z H 6.X.q.N.$X+X7XtXmXq.c #.9.O ..r.K.^.W.-XjX@Xx.A.x.E J J `.;.O.x.s 2 a 2 2 L [.",
"%X XC.a.a.F.B.L ].|.9XP.a.#.^ / [ $.{ | k.8XR.5 8 6.@.s.T.0XtXtXmXNXH.~ @.#.* ..J.L.E.T.3XjX2Xx.N.s.R D J ).&.*.F.=.y i a 7 T oX",
"=XZ.h.s.9.9.W.U qXR.;Xj.j.u.5.%.X.&.5.O.j.I.I.i y $.5.f.F.eX0X=XmXmXh.I a./ O ..m.Y.^./.=XrX+X+XN.q.P J A v.&.*.F.=.< y x 6 I oX",
"T.M.4.{ 4.E.vXS.9XR.{.s.x.u.f.>.>.i.i.$.s.P.OX6 7 X.-.f.F.<X<X$XtXfXN.U 5.c & 4.0.0.z.N.!.+XN.N.0.| H J G d.9.&.+XO.y p M u M J.",
"[ h.| } e.q.q./  .{ U f.X.f.d.g.g.,.;.g.B.l.l.i S X.-.l.).].F.F.7X{.k.b n r , 6 r N t.t.' ' ' ' ..{ P K H ) { [ 1.I I 6.q.C c v ",
"A.zXXXq.~ | 6.#.4.s.{ $.X.i.u.:.,.g.:.:.).nXhX( o.$.u.l.x.f.>.p.j.t.N.#.^ z u M M | K.r...e.8.' 0.4.) E H H c y I c B 6.q.3.<.v ",
"W.fXL.h./ 1.h.J.9.M.9.U u.o.Q Q ,.'.'.g.V.9X9X5.%.%.u.u.:.p.>.f.M.w.U.8.t.X.c ) I s.*X+XU.+XL.e.c.s.Q E K W ^ I I ~ c 6.q.2.3.B ",
"a.<Xa.4.| 1.4.w.1.~ | { { s < 1 A ;.5.-.l.B.u.5.{ @.u.u.u.f.-.&.9.8.!.[ ~ 5.5.6.%.j.<XeX0X=X@XW.A.n.W E ( ;.5.( ) / z M 3.C Z l ",
"=.;X$.L U { | a.q.9.6.M w , , y T Q Q X.%.d./ #.{ | / ^ { ^ X.@.8.| b.q q b s.B.f.D.oX,XwX@X<X}._.`.! D _ ,.g.d.a.6.^ / 6.V b z ",
"d +.s $ + O z t 4 = z ^ z + $ < < i p Y ^ h.9.3 @ @ @ @ 3 4 , u M t 0.@ t * 8 8 i E %.f.C.C.C.v.v.'.! _ _ ;.;.o.G S 6.P.| { p z ",
"s i.$.=.d.{ %XwXk.N | k.{ O X   + > + + U 5.5.c X         X . . z n ..X % 6 / o.g.V.-.X.P ] T Y L :.F ! _ A 2 A E i L {.s.}.}.x.",
"T  Xv.&.;Xf.].xXaXj.j.k.| + O & O # 1 $ @.P.h./ X   .     X # . U n a.# 1 + u ) -.v.:.;.+.i.+.&.+.Q 2 D ! D S 9 i o.u.9XqXlXBX1X",
"L R.n.&.f.T >.;X1Xj.P.j.@.3 + M c | U 4 &.yXn.N O @ % X O @ O + +.+.i 9 > > < L P :.:.;.:.f.u.9.] -.A A ;.;.).).).|.pXqXwXwXjX#X",
"a s.n.S.@X|.].#X.XaXkXd.9.R.R.h.j.h.Z.OX1X#X`.p.s.e.M.k.1.#./ U f.v.sX_.%.u.V.a.p.D._.v.V.u.Z.L.x.]..X_.i.Q [.oX.X]. X*X3X<X.X:.",
"b 4.8.u.C.|..X:X;XkXcX>XoX,XP.4.n.<X1XS.[.`.6X4X;XL.XXM.w.q.=.p.`.kXBXdXxXbXjX>X).]..X:X;Xf.XX$XR.OXB.V.|.Z.P.,X<X{.A.$X}.{.S.G ",
"b j ~ { p.`.:X.X6XBXdX>X[.Z.B.~ qXvXbXaX:.`.BXaX<X%XA.M h.h.I 6X6X'.4XBXcX5XqX2X#XD._.4X1Xu.P.J.L.j.S.,XhX;Xs.P.OXZ.L.J.N.A.%.A "
};
