/* XPM */
static char *_bfed0607c6c463ddb80df452999192aR9SWCpciIFBIrnpR[] = {
/* columns rows colors chars-per-pixel */
"64 64 247 2 ",
"   c #060000",
".  c #0C0400",
"X  c #0D0B03",
"o  c #130600",
"O  c #130C03",
"+  c #1A0C03",
"@  c #150D07",
"#  c #1C1204",
"$  c #15130B",
"%  c #1B140B",
"&  c #1C190D",
"*  c #171205",
"=  c #1C1A14",
"-  c #1E1E1A",
";  c #181712",
":  c #221305",
">  c #24150B",
",  c #24190C",
"<  c #2A1B0E",
"1  c #33190D",
"2  c #231C14",
"3  c #2B1E13",
"4  c #221F1A",
"5  c #251710",
"6  c #321E13",
"7  c #381A13",
"8  c #2B0B09",
"9  c #1D221D",
"0  c #2C2214",
"q  c #24221C",
"w  c #2B241B",
"e  c #2C291D",
"r  c #262314",
"t  c #322315",
"y  c #32251B",
"u  c #342B1D",
"i  c #3B2C1C",
"p  c #3A2617",
"a  c #27220F",
"s  c #242521",
"d  c #2A2621",
"f  c #2C2A24",
"g  c #2D2D2A",
"h  c #272A27",
"j  c #332C23",
"k  c #3B2D23",
"l  c #332F29",
"z  c #302720",
"x  c #343226",
"c  c #3C3225",
"v  c #34332C",
"b  c #3B342B",
"n  c #3D392E",
"m  c #3D3B26",
"M  c #343532",
"N  c #3B3632",
"B  c #3C3B33",
"V  c #383B36",
"C  c #2E342E",
"Z  c #461E19",
"A  c #511F16",
"S  c #412C1C",
"D  c #492619",
"F  c #54261D",
"G  c #43331F",
"H  c #432D23",
"J  c #522522",
"K  c #572C25",
"L  c #433424",
"P  c #4A3424",
"I  c #43352B",
"U  c #4B362C",
"Y  c #433A2E",
"T  c #4B3C2C",
"R  c #463926",
"E  c #543C2C",
"W  c #593527",
"Q  c #433D33",
"!  c #4A3E33",
"~  c #443B37",
"^  c #513E32",
"/  c #68352E",
"(  c #3E423B",
")  c #55412E",
"_  c #444135",
"`  c #4C4234",
"'  c #44443A",
"]  c #4B443B",
"[  c #4D4A3E",
"{  c #484839",
"}  c #534434",
"|  c #554936",
" . c #54463A",
".. c #544A3C",
"X. c #5B4C3C",
"o. c #5B4636",
"O. c #5A523E",
"+. c #4B402E",
"@. c #634E3D",
"#. c #644637",
"$. c #64513D",
"%. c #6B553E",
"&. c #6F4536",
"*. c #3E4641",
"=. c #4C4C43",
"-. c #4C4D4B",
";. c #464745",
":. c #544D43",
">. c #5A4D42",
",. c #544F49",
"<. c #4D514B",
"1. c #555245",
"2. c #5C5244",
"3. c #54544B",
"4. c #5C554A",
"5. c #5C594D",
"6. c #57594A",
"7. c #5D5C53",
"8. c #565954",
"9. c #4F5652",
"0. c #635444",
"q. c #6B5543",
"w. c #6B5945",
"e. c #62564A",
"r. c #645A4C",
"t. c #6B5C4C",
"y. c #655847",
"u. c #715C4B",
"i. c #735948",
"p. c #645D52",
"a. c #6B5E52",
"s. c #765F51",
"d. c #624E41",
"f. c #5E635C",
"g. c #5E6053",
"h. c #6C604E",
"j. c #64644D",
"k. c #73614E",
"l. c #646155",
"z. c #6C6254",
"x. c #64645B",
"c. c #6C655B",
"v. c #6C6A5D",
"b. c #67695B",
"n. c #736454",
"m. c #7A6554",
"M. c #736956",
"N. c #7A6A55",
"B. c #74665A",
"V. c #746A5C",
"C. c #7B6C5C",
"Z. c #7A655A",
"A. c #7C705F",
"S. c #646660",
"D. c #656A63",
"F. c #6D6C63",
"G. c #6A6D68",
"H. c #676D69",
"J. c #736C62",
"K. c #7C6E62",
"L. c #706F6A",
"P. c #6D7169",
"I. c #757165",
"U. c #7C7264",
"Y. c #74746B",
"T. c #7C756A",
"R. c #7C796D",
"E. c #75796E",
"W. c #767B74",
"Q. c #7B7B73",
"!. c #787771",
"~. c #6E7870",
"^. c #846E5C",
"/. c #82715E",
"(. c #94715D",
"). c #846D63",
"_. c #837464",
"`. c #897464",
"'. c #83766A",
"]. c #857A6C",
"[. c #8B7C6C",
"{. c #877867",
"}. c #847C72",
"|. c #8B7E72",
" X c #817E79",
".X c #927C6E",
"XX c #7B8279",
"oX c #91826E",
"OX c #848275",
"+X c #8D8273",
"@X c #83837A",
"#X c #8C857A",
"$X c #8C8A7C",
"%X c #878A79",
"&X c #938474",
"*X c #9A8573",
"=X c #958876",
"-X c #9A8976",
";X c #93867A",
":X c #948A7C",
">X c #9B8C7C",
",X c #9B857A",
"<X c #9B907E",
"1X c #8E806D",
"2X c #A2917D",
"3X c #AA947F",
"4X c #A58E7A",
"5X c #8A8B82",
"6X c #948D82",
"7X c #9B8D81",
"8X c #959284",
"9X c #9D9284",
"0X c #9E958A",
"qX c #99978A",
"wX c #9A9A91",
"eX c #8A948C",
"rX c #A39484",
"tX c #AA9986",
"yX c #A39689",
"uX c #A5998B",
"iX c #AB9C8C",
"pX c #A79786",
"aX c #B29E8A",
"sX c #A89E91",
"dX c #A18F81",
"fX c #AFA08C",
"gX c #B3A28D",
"hX c #B9A78F",
"jX c #ACA193",
"kX c #A8A497",
"lX c #B3A494",
"zX c #B6A895",
"xX c #BBAA96",
"cX c #B6A99C",
"vX c #BBAC9B",
"bX c #B6A797",
"nX c #BFB09D",
"mX c #B8ADA2",
"MX c #BCB3A6",
"NX c #AFAFA3",
"BX c #C4B19D",
"VX c #C4B4A3",
"CX c #CCBDAC",
"ZX c #C8B8A7",
"AX c #CDBFB2",
"SX c #CCC6B8",
"DX c #DBCDC2",
/* pixels */
"*Xw.T L ! a.c.a.jX>X&X>X{.n.{.bXmXsX;X9X'._.>X&X&X_.X.M.&XC...{.lX4XN.%.y.M.V.p.p.3.4.2.z.| n.a...lXmXT..Xn.! ` e.a.n.J.B.>.Y 7X",
"tXxX9X&X].2.` a.yX=X>X.X_.X.9XuX:X>X:X=X&XM.U.C.n.A.=XzX-XU.a.n.xXgX3XoXU.r.r.p.:.[ :...>.a.s.a.o.|.9XB.a.e.>.t.).K.>...r.! k J.",
"*XtXbX&XU.:.Q r.=X[.[.&Xw.i t.+X;XU.U.1Xn.| 0.n.N.>XzXVXpX&Xn.$.gXhXhX>X&X&X#XT.l.:._ z.'.>X>X`.n.e.B.J.{.+X{.n.[.-X|.V.K.a. .] ",
"*X[.+X+XK.6XmX_.e.C.n.`.>X>X| } &X=X{.M.z.{.{.T -XvXiX>X>X,Xn.0.fXBXgX*X.XK.T.J.p.4.}.yX[.B.{.).a.! Z.;X'.U.C.z.` n.uXsXyX;XB. .",
"t.{.B.a.].mXrX;X].o.[.bXxXaX&X.X$.{.[.k.=XlXVXoXrXnXfX=X[.{.M.0.4XhXgXrX9X|.}.J.] f :XsX+X[.).Z.K. .+XjX>X[.C.n.L .XAXCXcXlX].>.",
"| ].M.C.sXyX7X#X/.Z.tXhXlX>X-X|.n.X.0.1XzXxXVXlX>XvXnXtXoXU.n.$.*XxXtX&X.X|.U.4.b r I.NXyX7X&X[.B.2.sXcX>X[.Z.t.} BXSXZXmXcX;X} ",
"k t.a.2.8X;X'.'.n.>XVXBX2X*X>XK.w.R A.xXzXgXhXfX=XxXzX9X-X1XC.0./.gX*X{.Z.B.c.4.q & v 8XuX6XdX&XC.0.lXiX;XZ.0.} .XBXVXVXVXrXK.U ",
"+.>X9X&XV.U.}.{.n.pXCXlXiX>X&XC.q.@.iXxXzXtX<X<X{.rXpX<X:X=X+X0.$.2XoXC.K.9X6Xp.= % & p.;X:X;X{.B. .iXyX&Xn.0.| CXbXvXbXaX&XC.c ",
"_.lXuX9X0XOX} t.t.BXVXxXrX*XU.n.q.*XlXtXbXiXuX=X&XU.uX=X;X:X|.d.i w./.-XsX0X|.~ 4 % @ N +X6X&XK.e.Q n.z.t.o.S &XAXxXtX-X>X_.$.L ",
"+XsXlXrX+XV.z._.Z.ZXVX-X&X_.V.y.).rX-XuXzXrX&X=XV.w 2.'.;X'.J.>.$.1X<XrXyX6XL.l 4 ; @ % J.OX:XK.| t.yX[.C.t.| 2XVXaXiX-X&Xa.X.p ",
"{.>XiX+XC.K.7X+X,XvXtX-X&XU.M.B.*X,X,XyXrX#X9XT.u * 0 b a.J.e.J.iXbX2XsX;X#X:.4 q 9 ; X ~ 5XB.:.K.V.rX[.[.V.0.iXbXfX2X-X.Xn.n.} ",
"Z.{.&X_.e.r.&XA.iXVX-X,X>XV.e.>X>X|.7X7X:X:X#Xj . 2 @ 4 d f J.mXvXiX9XiX6Xa.l s 9 - ; ; $ p.p.K.+XJ.:X+XU.n.0.>XbXBX=X-Xn.pXlX_.",
"T k./.M.M.C.|.w.ZXtX>X-X+Xa.K.].).|.|.7X6X}.Y   X = d q l M l  XlX>X7X:X}.=.l s q 9 ; ; ; s }.T...Y c.9X].M.>._.pXpX=X:XzX<X=XV.",
"y.>XgXvXjXiX>XZ.ZXtX7X;XM.] p.c.a.).|.6X}.]   ; q f v M - - N ~ }.:X9X#Xe.~ f s h s 9 $ 9 9 p.b 3 * Y 8X>X].y.z.&X_.{.lXrX>X[.0.",
"ZXZXvXvX&XK..X&XxXtX-X[.` c  .,.J.a.J.J.=.% X ; s g h V V h M v Q e.;X|.4.l l g h - 9 9 ; $ e u % 3 c ].#X&XK.w.n.h.Z.fXzX>XU.A.",
"bXpX2X;XC.|.-Xt.4X>Xn.R e.c.r. .~ >.e.:.@ X q h s N B M V h M ( b b _ J.=.N h g h h 9 9 - - q 4 * & & c.:X&XU.n.| {.U.M.rX+XM.[.",
"[..X[.`.B.`.B.t.&Xn.} [..X&X;X>X9XuXT.$ X - g C M n x ' =.*.V V ( M M M l v v g g s s s s - - - ; ; w  .|.7X{.Z.} 0.'.n.z.U.F.[ ",
"X.n.a.Z.n.^ t.aXiX{.n.[.[.{.C.>X:X}.r   ; h C *.m c m ~ ;.9.*.*.;.' V f s v V M l g s s - - s s ; w d :.2.'.[./.Z.u._.'.0.e.c.! ",
"B. . .B.vXrXZ.&X[.t.+XiX&X[.&X6X}.j . = ; M *.*.c , p y =.f.9.;.;.=.=.B M N N f l g d 4 - - - s w ; 3 a.Y >.|.iXpX_.A.>XJ.Q p.p.",
"a.L >.VXVXpX&XK.0.} t.K.[.}.8X|.=.@ $ d C -.-.M 3 E `...7.6.:.[ =.<.<.( v v d q 4 4 4 4 - ; = = d 2 d S.4.;XmXcXuX[.U.yX).! B.].",
"..! 7XlXAXrX7X|.0...a.c.U.T.T.[ . s h V ;.;.-.;.S .XaXi.X.] I m =.<.=.n v b x b l l l l f j f f 4 $ q =.] T.T.5...b ! T.B.[.7XM.",
"^ 6X:X,XmXiX:X7XK.:.V.J.c.x.' @ - h M -.*.~ ~ y U `.(.o.p G < _ 6.5.5._ N ' Q n I N l 4 = - 4 2 d @ = v v l s e 4 2 z.6X}.V.U.B.",
"+X6X;X|.yXuX:X7X|.2.! :.4.B = ; s M ;.-.V f 8 J  . .) E W i.c { 7.v.c.5.7.V.F.J.4.4. .b j j j w = X $ e v g g d = ; c.sXuXn.2.h.",
").6X;X].iXrX|.K.z.>.,.@Xx.- ; f v V ;.-.-.f ^ u. .R | G &.(.O.3.b.v.I.v.J.V.p.c.a.r.:.~ Y Q b j 4 % = v v q f 9 - 4 7.kX;X&X0.| ",
"] ].[.'.+X+X_.2. .m T.6Xl - g B _ { 3.H.b._ E o.k j Y t D #.m 6.v.Y.U.x.p.5.2.r.r.r.:.:.Q ] n j e . ; l M g g - s g ~ 0XsX&XC.^ ",
"| ..r.n.A.t.} t.2.] ` n d l B -.6.6.7.S.x.Y ) P U [ [ u S R e [ =.c.j.[ 4.V.U.U.J.U.p.4.] .._ n b @ 4 b M g h s q f v 6XcX:X_.u.",
"].c L c R ].lXfX7X|.~ 2 v =.8.S.D.I.R.T.U.1.y.] ..:.:.{ ..[ [ 5.6.6.{ 6.XX:X%X#Xv.M.p.5.7.p.5.[ n % 4 4 h h g g f 9 d }.cXrX&X).",
"#X2.c t.cXCXVXgX{...0 Q 4.,.-.7.7.c.c.r.r.:.5.6.2.` Y Q C C x e u e w [ M.x.r.U.V.r.v.:.Y b ~ [ ~ f f % 4 g v v g $ w p.0X8X9X{.",
"=Xh.r.VXSXgXlXxX{.T y I c B B B B ' m c I c q q u c Y ~ *.*.{ Q _ ( ( 6.b.M.I.0XY.5.OX5.B ~ -.p.b 2 2 O % d l l z @ 3 ~ 6X|.6X;X",
"1X0...nXhXhXtXfXgX&Xt.] 5 w 4 w 4 d 0 w c n e f e Y [ 5.~.H.5.J.l.6.m 1.b.XX8XcXR.r.8Xc.[ =.,.4.n @ @ . @ 4 d l l 4 4 y ;X|.K.[.",
"M.0.0.pXzXgX*X2XiXpX=X=Xr.u = f g v w w 3 w l e n { 4.7.W.E.6.v.g.g.{ 8.5.v.%XkXI.5.XXl.=.] ,.p.=.% o . . @ 5 = z 4 5 4 L.;XJ.s.",
"t.+X+X[.fX<X2XoX>X-X|.+Xp.j j q N ~ N ] [ [ l.Q B { b.:.3.Y.4.=.=.j.g.g.[ 5.XX8XE.4.l.7.p.=.;.4.=.5 % + @ 5 4 + @ + z z >.;X'.e.",
".X;X:X|.[.uX9X&X=XN.Z.N.2.L j b ;.3.4.x.r.4.c.n ] ,.p.n x c.6.R.XXb.7.b.=.OXMXkXY.1.b.F.R.3.<.x.1.2 6 + @ 5 d 5 @ X + 2 ~ #XT.e.",
">X:X=X'.c.].rX=X2.T T L } 0.p.1.7.7.6.I.B B c.6.>.p.F.n N P.3.OXE.XXb.F.4.8XSXkXg.1.F.F.W.3.8.x.4.5 7 8 5 4 v d @ ; ~ p.>.'.4.T.",
"&X{.U.z.` } ].h.{.iXlX9X2.c.l.p.=.v g E.3.8.P.=.p.D.Y.V M F.;.E.!.@XD.P.g.wXSXwXb.g.F.x.b.' <.x.4.> 8 8 5 4 N N h q F. X4.Y U |.",
"n.w.X.X.L 2.jXlXMXvXlX:Xr.c.l.8.g.V M D.8.l.~.f.G.D.P.( V g.V f.3.f.!.Q.6.XXNXwXl.v.F.7.7.;.8.F.5.5 Z 8 8 s ~ B d w T.J.p.4.n.B.",
"Z.C./._.h.V.pXvXVXzXjX:Xj.1.3.x.f.8.8.S.8.9.*.H.L.D.H.8.9.f.f.D.W.Q.5XQ.f.l.P.5.l.F.b.[ ' B ] =.2.< 7 7 % 4 B l s f J.'.a.V. .X.",
">X-X-X/.M.r.].iXSXVX0XV...l.v.F.D.G.D.D.f.D.( XXeXXXXXW.H.D.H.D.G.eX5XQ.W.3.v.x.F.I.I.F.F.l.l.c.0.< D 7 5 d I s g s J.6X|.).P -X",
"vXiX=XU.M.r.M.:XjX<XA.| r.Y.R.x.G.F.P.~.P.f.C P.XXXXW.XXQ.!.XXQ.S.!.G.!.Q.l.F.b.I.U.$X8X:X}.V.v.B.p K Z 7 k ~ d h f F.}.=X_.u.xX",
"jXfX:X:XV.y.j.OXoXM.O.M.U.OXU.OX#XL.R.Y.P.3.( H.W.XXQ.XXXXT.Q.E.Q.p.p.7.' n 4.M.z.I.+XV.c.}.T.V.'.S J Z z f N s q v F.yX=X_.-XBX",
"0X<X:X}.l.l.y.U.y.| h.oX1X+XOXOX6X].U.c.v.O.1.g.v.%X%XI.v.j.O.{ N 4.7.:., & Y | 5.l.y.r.2.r.0.O.u.E K Z 6 y ~ l 4 l $XmX>X,XlXBX",
"#Xv.z.l.V.1.1.0.X.y.N./.{.1XA.].t.e.2...] m u & * * a a e a 0 a v a.] % r b Q ] y.U.=X+XA.t.| | | E W D k k =.:.~ x T.DXbXfXxXhX",
"2.>.r.J.M.5.` | O.X.%.q.j.M.z.z.t.C.t.w.| m +.y.M.A.A.M.1X1XA.1XK.c.b % a m ` 2.j.V.U.j.j.t.O.M.N.#./ Z 1 5 k Y x Y V.uXK.`..X*X",
"r._ :.4.] p.! ` | h.A.j.| +.| +.} } >.Z.M.R O.j.+.i ] T +.V.fXOX}.j > j & O e [ U.+X#Xj.w.j.+.M.A.E W F 7 k  .2.] i  .7XyXq.! {.",
";Xe.T.r.r.4.t.` T h.t.p : * , & < 0 1 k n.} | X.t : t < a O.].I.'.w O u r * x l.U.%X:XOX<X<X2.j.M.P W K P S L |  .c + :  .).Z.iX",
"yXw.d.0._.B.rXz...X.+.p 0 # O   O < < y X.0.L t : , y a c c ` V.}.j * 2 r q [ I.F.:X8X:XqX8X2.V.k.) W W i.o.S $.i 6 : : o + U yX",
"*X^.w.[.{.t.&Xn.[.t.X...u & 2 O 0 I z 6 e.a.> + u y c n Y I [ R.#XB 2 l l e =.b.E.8X%XXX8X$X1.j.N.) W F ^.k.P k.o.i > < + + >.|.",
"*X{.w..X{.n.[._.].].M.4.b e 9 $ 0 j k I B.J.> 3 k R `  .c.v.x.#X8X3.f n M = { P.E.$X@XP.%X%X5.V.N.) / W ^.q.G k.} L 6 7 1 5 K.7X",
"*X_.h.M.| '.K.K.0.&XU.4.Q v q . O c n =.R.J.4 k ^ ^ d.a.#X$XXX5XkX2.k ~ B & ( f.j.XXXXA.qX<Xr.z.M.E W F N.O.+.$.p i 1 p 1 1 m.-X",
":XJ.e.K.M.V.z...|.:XV.4.:.Y j w b c ` 4. XG.l z :.^ t.Z.:X5X5XwXcX4.j ] { $ =.b.F.I.XXOXkX8Xj.M.M.U K K N.j.+.M.+.G t S 7 7 k.=X",
"}.I.r.r.2.4.U.| ;X&Xa.2.O.| ` ` | |  .e.}.p.4 z o.X.d.Z.9X9X5XwXMX4.` [ _ % ~ v.I.Y.XXOXwX<Xc.I.a.U J K h.j.+.M.| p , i 6 t n.=X",
"].p...1.:.R.cXV.'.+Xz.y.X.X.| X.X.0. .e.J.p.3 6 o.@.0.Z.pX0X5XqXmXp.Y [ Y * ..l.b.v.E.XX$X%Xv.E.3.L J K h.j.{ A.| u , c y 3 0.V.",
"n [ B 5.6X0X#XJ.z.V.j.0.h.h.%.w.q.@.d.p.a.>.j 6 ^ @.q.m..X].].#XsXe.j ] l % ( { { f.v.g.D.v.8.g.~ b J J X.4.{ c.1.Q n ] l 4 k j ",
"I.J.p.4.:.[ Q ~ Q ` } G q.u.k.%.i.q.t.s.;Xa.U U @.t.m.m.{.V.J.I.@X[ b n 3 % r r x j.g.( ' *.V ( [ ! J J U L u Y b v B <.;._ ] n ",
"J.J.:.! ] 3.7.p.:.O...R $.%.%.%.s.i.u.s.mX,Xa.d.d.t.m.n.n.r.r.e.L.p.] 4.^ y ^ H d.|.'.j.p.7.<.3.3.| J / P L j c n n ' <.-.:.,.I ",
"e.c. .~ 4.p.c.p.4.>.| ..) S S %.i.i.a.a.|.Z.>.^  .t.Z.a.0. .4.,.L.,.,.4.>.I ^ H d.|.&X].$XR.l.x.5.X.A / E ^ R Y k b B -.-.-.;.H ",
"U t.! U ~ ~ ] ~ ] B c b + + : 6 T ) } o.0.>.e.>. .e.e.e.e. .4.[ S.8.M V { r.j.2.0.:X<X0X<X%XR.V.U.$.F / &.^.e.T >.B 4 ~ v w j k ",
"p y y y k I ] =.~ ~ b w 5 6 k U P U } X.r. .I c b k I c b b  .' -.-.q = e :.O...0.n.&X:X&X<X+XA.A.&.A / &.q.u.w.! :.] :.Q ~ I U ",
"p y 6 > k e.7.r.` ~ :.k o . + 3 < t p i t. .5 . . . O o @ @ < w M -.X & w 6 i U #.q.E o.X.} X.X.N.W W &.W D E P 0 Q B.B. .T.'.K.",
"i  .n.Z.>.uXcXlXJ.:.p.~ @   o . + + + | e.e.j .   .     o . . 2 ~ B X # : H o.q.s.#.o.) ) +.T } X.D F / D D 1 S U 0 >.).a.,XuXdX",
"H :.s.'.c C.>X:X[.j.e.Y o o 2 5 0 , # +.>Xa.j o   .     o . + k ` 6.  O < < G T n.X.@.$.w.0.0.@.) Z 1 W W P p 1 >.a.,XpX7XlXsX'.",
"I >.>.t.| M.[.+XC.'.M.} k Y ! ! T +.i y.;Xz.] 2 u q w w 5 > < Y | $.u : < G R | o.w.X.0.n.| w.0.$.@.#.%.o.T `.*X6XK.).,X,X,X+XO.",
"y :.4.e.M.{.1X=XoXtX-XC._.'.K.>.y.1X=XA.[.B.|.R.}.J.J.4.,...c k.N.2X*X(.`.4X*X/.m.q.`.&X{.t._.C././.k.k.oXn.).,X$XJ.`..X/.{.U.( ",
"b j I ! y./.=X{.tXxXiX&X[.B.a.! pXzXvXrXy.U.lXsX6X XB.~ e.z.L 3X2XN.*XBXaX3X3X*X*X/.Z.&XdX0.C.C.m.k.N.=XiX&Xw.C.I.F.Z.^.m.M.| a "
};
