/* XPM */
static char *_fe7a0e4765b49f2a7b2090ea9e1aaceuBvAKekLyKz1Uh9m[] = {
/* columns rows colors chars-per-pixel */
"64 64 164 2 ",
"   c #31271D",
".  c #332A1E",
"X  c #3C2D1D",
"o  c #3D301F",
"O  c #372A21",
"+  c #3B2E23",
"@  c #3E3124",
"#  c #3D3429",
"$  c #402F1D",
"%  c #402F25",
"&  c #433424",
"*  c #473825",
"=  c #42352A",
"-  c #453A2B",
";  c #4B3C2C",
":  c #503F2F",
">  c #4B3E31",
",  c #4E412E",
"<  c #4E4134",
"1  c #4F4138",
"2  c #534435",
"3  c #564937",
"4  c #594A37",
"5  c #53463A",
"6  c #584638",
"7  c #55493A",
"8  c #5A4C3C",
"9  c #604E3A",
"0  c #62523F",
"q  c #554B40",
"w  c #5C4E41",
"e  c #5E5143",
"r  c #5F5148",
"t  c #614F40",
"y  c #635445",
"u  c #685746",
"i  c #675946",
"p  c #6A5947",
"a  c #635649",
"s  c #65594B",
"d  c #6B5C4D",
"f  c #735E4B",
"g  c #665C51",
"h  c #6B5E51",
"j  c #6E614E",
"k  c #6E6152",
"l  c #6E6559",
"z  c #736455",
"x  c #786755",
"c  c #756857",
"v  c #7B6A55",
"b  c #736659",
"n  c #76695B",
"m  c #7A6C5C",
"M  c #7E715E",
"N  c #776A61",
"B  c #7C6E61",
"V  c #7E7163",
"C  c #816E5F",
"Z  c #82725E",
"A  c #806F62",
"S  c #827464",
"D  c #887767",
"F  c #857866",
"G  c #897A67",
"H  c #847669",
"J  c #86796B",
"K  c #8B7C6C",
"L  c #907F6D",
"P  c #8C7E71",
"I  c #917F71",
"U  c #8F816F",
"Y  c #92816E",
"T  c #8E8172",
"R  c #8F8178",
"E  c #938475",
"W  c #988776",
"Q  c #968876",
"!  c #9A8976",
"~  c #948679",
"^  c #98867A",
"/  c #96897A",
"(  c #9B8B7C",
")  c #9C907D",
"_  c #A08F7C",
"`  c #A2917E",
"'  c #9C8E81",
"]  c #9E9182",
"[  c #A08F85",
"{  c #A79780",
"}  c #A29586",
"|  c #A39484",
" . c #A89784",
".. c #A69886",
"X. c #AB9985",
"o. c #AC9C85",
"O. c #AA9A86",
"+. c #A09788",
"@. c #A49689",
"#. c #A49689",
"$. c #A59989",
"%. c #A69989",
"&. c #A6998A",
"*. c #AB9A88",
"=. c #AB9E8D",
"-. c #AA9D8D",
";. c #AB9C8C",
":. c #B09E8E",
">. c #AD9F91",
",. c #B09E92",
"<. c #ADA08F",
"1. c #AEA08D",
"2. c #B5A48A",
"3. c #B3A28E",
"4. c #B8A68E",
"5. c #AFA292",
"6. c #AFA194",
"7. c #AEA192",
"8. c #B2A290",
"9. c #B7A790",
"0. c #B7A692",
"q. c #B0A295",
"w. c #B4A796",
"e. c #B7A797",
"r. c #B3A494",
"t. c #B8A795",
"y. c #B9A694",
"u. c #B6A996",
"i. c #BBA991",
"p. c #B9A896",
"a. c #BBAA96",
"s. c #BFAD95",
"d. c #BAA995",
"f. c #B5A699",
"g. c #B6A999",
"h. c #B6A89D",
"j. c #B6A999",
"k. c #BBAA98",
"l. c #BBAE9B",
"z. c #BBAC9B",
"x. c #BFB09D",
"c. c #BDB09F",
"v. c #BFB09D",
"b. c #B6ACA0",
"n. c #B8ACA0",
"m. c #BDAEA1",
"M. c #BEB1A2",
"N. c #C0AF9C",
"B. c #C2B19D",
"V. c #C3B4A3",
"C. c #C9B7A7",
"Z. c #C7B8A5",
"A. c #C9BAA7",
"S. c #C9B9A6",
"D. c #C5B6A8",
"F. c #C6B9A9",
"G. c #CABDAC",
"H. c #CCBFAE",
"J. c #CBBBAB",
"K. c #D0BFAB",
"L. c #D2C1AD",
"P. c #CEC0B3",
"I. c #D4C4B3",
"U. c #DBCABA",
/* pixels */
"! u ; & q g l g 6./ W ( D z G k.h.,.^ ' F S ! E U M 8 c ~ m 5 G y.! Z 0 u z k k g e g e l 7 l l 7 7.h.V P N > > r h k b b t = ] ",
"X.t.| Q V r 1 l +./ ( I S 8 ' } ^ ' / ~ E z M M c M Q w.( V d k N.2.` U M d s a q < < 7 e g N g 7 T ] l l g r g A N w 7 d - + V ",
"E *.r.E V q # g / K K Y u X d E ^ A A I z 7 y j v / w.c.] R z w 2.4.2.` ] R T V g e , l J ] T J c a l V H P J b P ' P z N g q > ",
"Y Y P P V ' b.V a m z D ( ( 6 2 ^ I S x d F F , Q l.1./ ' ~ z y o.N.s.! K J V N k l V ] J n J J k - n / J B N k > b *.>.[ ' h q ",
"f K b d J b.' ' D 6 K y.k.:.E L t A K z E 3.A.K ) v.1.~ K H b y _ i.y._ ( T P B k k ) $.] K S z n 5 R 5./ J B z & U P.G.h.,.J w ",
"6 D z n 6.&.' ' A x X.y.3._ ^ K z 6 u I y.t.Z.0.) v.l.$.T V b y _ 4.` W ~ J N r 7 # 5.7.] ( ~ D c e <.w.' P n d < c.I.V.N.h.~ 5 ",
"+ p h a ] ' V V z _ V.N._ W ( A p ; A k.d.0.3.:.E l.w.} ' P N y C o.( D b N b s < e c.-.$.| E ^ n y w.1.~ B a < U c.V.V.V.[ B - ",
"2 W ' ~ l V P V z *.J.0.:._ I m u 9 :.t.z. ._ _ F ..{ ( ~ ^ P e 0 _ E A N ' ' J < n t.] Q / W S c 3 %.+.T z e 2 L.j.l.r.7.~ N @ ",
"H 6.>.] ] J 7 s p V.V.y.| I A x y ` *.;.k.,.[ W Q D k.^ ~ ( P i $ 0 Z W ,.#.^ A = b n.#.( ( E S y , d z h 2 + I P.w.1.! / V i @ ",
"E ;.q.+.R n z S m D.N._ ^ D x p V ( _ *.=.| _ ( K m K W ~ G b 7 0 L [  .[ ^ H g = r ( [ E W I z 3 i | K A s 8 ' c.1.+.! U j 8 . ",
"G ( -.E n B ] P I N. .W E B z b Q / / $. .^ W K C m 6 u A x p B ;.4.` | ' R N t A K m K ^ ^ m t S z [ I P z d *.c.;.) ! E z k 6 ",
"b D E V s s ~ A *.C.( ^ ( b a ' / / / ) ^ E L m f z X X % & f z.l.3.| | I A t b ( K A t K b p A K m E I N z u ^ t.c.! Q z *.q.S ",
"; z v x z m K p C.X.( / E h B J V T R Q / T V d z p ;.r.! D u ( 1.! ` ( F z : ' ' I m t ; 6 ^ >.` E Y | H A w A |  .! ! r.[ ^ m ",
"u _ ,.z.r.=.( x J.X.( E z 5 g l l V T R Q F j i p ' V.r.{ 3.t.L ` ! ) G m d g #.^ I I z % % I ,.( E A >.^ P y h ^ S S r.| ( K y ",
"C.C.l.z.W m K ! z.{ ( K < # q q l l n n n l s i K j.8.{ ! W *.3.Y ! ) Y x t P ^ ^ ' ^ p x N.[ ( C K z E ~ I m i z z m =.f.^ A A ",
"0.*._ E A K Q d [ ( z = r g g q , 5 s d s s e 2 T ( ^ ^ E ( ( 3.Y ` Y Y n 6 ,.^ ' I C d *.N.J.H.C.[ t m [ P D d 6 K A b [ ~ z P ",
"D I J S n S c d P b 7 S E P / / ] -.) ] T m ; 8 / / / / ! Q ( | X.M ! F k T 5./ ! ( z j :.z.0.N.S.t.( h I ^ G x 6 y J k h B N 1 ",
"7 z z n c < s 7.;.K z J U V F Q ( } ] $.C.I.m z Q / / / ' ( / ~ ( z x F 0 <.<.R ^ E x x ` `  .*.0.r.W x y D P m N s V J q g b 5 ",
"z 2 2 c z.] n E P g P >.E J / / / %.5.&.M.I.( n T / / / R T E ' ^ Q 5 8 2 5./ ' ~ ^ m 8 L L ( ! _ | _ D * 8 E >.#.P S / n 1 r s ",
"h & 8 M.V.+.~ V p > z A J Q E T / ) Q Q / 7.-.y V V T ) T n B ~ T ( l < e V R ' E / s ; z ( ^ ^ ^ I I K y W e.e.>.S n -.V > N P ",
"q > ' q.H.] ' ~ w > b b n A N J V U T ) / / U # k l V T T V n V / R J i ] ] ] V V k 7 # h D H ^ ^ L x A y m.,.| ^ S e H N T ' l ",
"> ~ ' ~ n.>.R ' J w h N b b h b n n V V U V s < s s j l U R V c n P V a N 7.R R n l d V N.' y x C C b f 8 ;.( Q P k N | V N V l ",
"~ ' ' P &.&.^ ' A a : q w 5 q b l M M c c l n 7.w.<.U l k l m n m n l j # E ) / ] R e ] C.C.z 9 x z u & % E | E V V +.&.$.n s k ",
"V ^ P H >.] P B b q t P ~ I P N k l j m l e e U T <.7./ c e y h c k c k 2 < J T ] T T c.N.C.,.9 S E _ ( d D P ( E J b.h./ T r 5 ",
"> J J H E T V 8 7 @ V j.V.D.m.J.P.) j 3 B ' Q m A D [ ^ D m y < 3 m K ( z.k.| M x A t.e.z.t.B._ 8.( ( ( 7.n Q ! E / M.h.&.T n < ",
"q q d l B h 3 d 8 8 , r.f.#.#.b.5.1.M - >.z.r.q.Q S d K D z z p D { s.B.N.S.V.m 2 E ( W y.y.N.:.K ( Q ] ( m V J m ] M.w.n./ P z ",
"P % % % * D r.1.Q ( S 8 &.I ' ~ E ] / 7 r.;.;.) ' *.( y S y m | 4.B.4.i.B.0.8.E 9 _ (  .y.y.y.:.m E / E ( V j n 5 %.c.j.j.] P V ",
"I t % d r.H.C.8.( ^ Q d N [ ^ ' ( / ) l E U ^ Q ~ Q _ z * m ) 5.3.o.` ` `  .k.3.u W Q ` y.y.` X.W k Q / U n 7 7 @ ! w.%.] +.~ K ",
"^ l d D.J.,.0.t.) { E S m K K ^ / ^ / V P J J T S K / k i n U c v f f 8 y x I  .S m E ! ` y.) ( ^ m n T U l 5 k 8 k 7.( ^ / Q T ",
"I t w N.e.y. .:.8.X.^ ! p D | ^ H H ~ H ~ ~ S n n d c e j j k U |  . .` o.! z p d o z Q Q ;.) T ( U i n m j c Q M 5 J ) ( K V J ",
"b a a *.y.:.W ` 3.` ( W S z P ~ H z J m J R J k y s y & j 5.M.P.K.L.U.U.I.I.f.6 @ @ 5 k E ( U ) E R 7 y V n V ) M < 2 K / T M c ",
"h I I K ,.[ ` E Q ( U U S p ^ ~ V g V g b b s 8 s d < n $.<.7.<.N.V.k.C.C.n.r.e n ] V k M J T J V b , V Q 5.E ] F k & d ~ T D y ",
"T / / K K *.( W W v z C k 2 b H n s a > > 1 e k ' $.J H ~ ~ / / [ :.>.' #.+./ r V ' ' U g k z z z n s n U Q T ] P l h y H ~ V w ",
"/ / ~ S z K [ ^ 4 : ; & 8 Q J g e b n z k ~ ] 7.>.~ V c ~ V V V E ( / / ~ T U e N T ) / M @ 7 n | { Q d 8 V F 6.K N ~ B w H w P ",
"T H A h : : K f D  .l.( n $./ / B ( $.( } ) T U ~ n ; d T T K n m I ( K V ~ e g H ~ ' +.] l m >.;./ ~ m - ; c T > P / J a > > J ",
"b s y t % t ,.,.V.V.%.( z T J V c U T c V m n M k k J n Q ] Q J x A b m n d 7 n J ~ ~ ~ ] ' k V c K S n J F e ; B E ~ N a w g N ",
"b N H H d z  .N.D.z.*.^ 8 y M k y e 8 s 5 , 8 V ] %.$.j k V F c c j n m k 3 k k k k b B N H h J n V / U E F e J / ( K K n z 7 w ",
"] ' ~ N z d K  .J.e.:.I 7 M 6.V.+.~ / F 5 c 5.%.( E / 7 < j 2 8 7 7 j k 2 < e e y h y e g H ' ~ T z U / V n F r.] / ( E P A & ( ",
"z.;.~ N n d m _ l.| I A p ( 8.0.$.T d j %.j.w./ U c z e &.M.F.l.5.E 3 ] <.1.] ) H a > h ' I P P J e 8 n z i c l.r./ W ( ( v m 0.",
">.,.' ( m s p E ( ^ H v j ( ] E T k V 1.] ] <.] Q S n m w.V.q.>.Q U E w.5.l.l.1.] >.#.' [ ' P A d y F V d J F +.F.5.q.( Q K P C.",
"#.~ ' K b A h 5 m c n m j Q E K 8 < } ( ( ( ] ) G V z e / ) E G V j j l.u.u.3.) ( { ] T I b N g g T / ( T V S ' e t.J.V.( I l.r.",
"#.^ ^ A D I 2 + z U ;.%.D L E y k j =.} / ( ( / J V n & z k k y 7 E ) U ;.3.U ! ) E ' E N > # y k T / J E J 8 V F V ] I.l.0.8.B.",
"I K ~ ( ( S B >.>.R ~ ( B t d X.( K G P ^ E J V D Z z ^ Q E y y $.<.U M ) ! ! G G G z m h w h N n V H n z n z H %.1.8.*.G m E W ",
"x z V.r.] m y B ~ P E D y 6 [ | ! ! p 2 j p S ( :.C.I.t.k.r.=.I ] T T j v Z Z z y p d y w h y q l V n b b n k P ( ^ ( r.o.9 2 Z ",
"K S t.X./ k K V N B B N u _ _ ^ ( K C : E d.l.k.V.V.e.r.-.d.q.| U J V 7 * , 2 v  .`  .E K K h w > > g g h N s J ^ ^ ( | :. .x *.",
"` S ;.) Q z ~ n.7 z b w [ ^ I I z d y J.V.t.8.e.| :.z.,.| Q ^ D q k 2 - o v l.L.J.V.=.( ' ( ~ l q + O # > g b b K L ^ ~ E ( L  .",
"_ Y Y ! U g E +.H w a 8 I I K S d 6 K  .*.[ E ~ ( W Q E ^ E ^ D R I.P.F j Z.L.s.N.3.z.*.] 6./ ~ l g # q #.#.P a z m I I D D ( ! ",
"Y Y J E V z K ~ H A I N h h z A G L z K Q Q ^ Q E K D P G G D z / M.M.M.E +.l.s.y. .` 8.*.j.| ' ^ V r y ' ' N 2 y G | v 6 W *.( ",
"! V J M 7 V V c i -.C.j.K z X.` / G m ; u K ^ L C v z m V k n h ' J.U.J.=.L ~ 8.[ *.| ^ ^ [ ' / ' R N g P b f [ C.N.S.B.9 W _ W ",
"E V V n s m z & Q } | X.! ( 3.t.^ S S d  .*.I K h y y 8 2 < > l ;.#.f.V.| ^ z Z ;.( Q ^ ( ( Q J V V N N = u *.K.V.y.N.B.G C ^ Q ",
"/ n d k s s m ; 6.%.E ^ E ^ ( ( ( K d m *.D.z.0.r.r.;.' a > P h.;.( _ ( ( K x z y K #.[ ~ D z d N J B q X I J.L.K.N.X.:.{ z P ^ ",
"N k s a e V j.c $.+.! ^ ( D W K P m m J A *.E W [ | r.k.] J +.( r.*.L E E D v z : % 8 I I D ! 5.m.V.>.h z :.y.N.B.:.` L D h g b ",
", r 2 a ~ ' ^ m / / R ~ Q J K S b J ] ] K z D K ( 8.N.' ( h V G [ Y ( f z v z 4 u ! c.S.Z.l.3.w.-./ ( m %.8._ ( 9.3.X.G z k > - ",
"N j.b.6.+.] ~ h Q T / / ^ / b n n V ^ ' ;.| v z v K _ I W t z m D E z z 0 * ; Y d.C.L.Z.1.1.1.Q / ( T S Q I ( _ *.3.*.E m n r + ",
"n ] / / ^ J m s c S ~ ~ R ' s 7 a J n J ~ -.X.-.E x d x f h ^ ,.0.*.{ | z & ` j.3.l.d.r.1.Q U Q E E z S Q ( ( E Q ) Q K n N h # ",
"d ] / R ~ m x t h K ' T ' ^ k + g h k V T ( ^ ^ *.( % x z z ;. .*.| =.E E z j.d.| %.<...Q M V U Y i , z A E ^ ^ m M V V k l r + ",
"> ~ P P A m z 2 8 E ^ ~ ~ V a + < r r l F E E Q _ | C N.| m j.( ~ ~ ~ W ^ D m.;./ / / Q n k r k 4 z x y z m V F c j 8 3 3 -   O ",
"@ h b b D K m : ; y b z h h N N / R T n d n D D D e.V.[ E S *.7.( ~ [ I N p I ( / Q T U l e e V ;.>.*.S 2 2 e T %.1.V.M.1.U l # ",
"O r J ~ *.#.*.| f + 2 d N b l g N J E ( S ] E E | e.q._ Q E c ] ^ S I ~ A 5 6 ~ ' / J l e , s ' ^ ^ +.' s = T <.7.r.F.P.P.P.M.N ",
"# H #.' *.r.N.k.*.d E r.F.h.~ H a z b m k ] { A W e.E Q D ( m M S v z y d m b h T / V q # @ k 7.( ) ~ ~ ~ 7 T R E %.j.t.b.b.P.' ",
"= J P V ~ | | E ! K y.z.l.6./ P b E >.H.K A D f 6 E ( E V K P ; * 0 K 1.[ W ~ z - V / J N r N / Q T Q R n r V V M U ` +.] ] g.T ",
"+ g g V P E K L Y  .N.` | ;.~ z p S m ( E z I W S D E G V k l < m 3.9.l.0.=.-.D V ) ] J N r T ) V S R V r 1 T R / S J T Q / / 7 ",
". q r g b G E L Y 4.z.( L Q H w d ^ ' x L v :.( E D D d a e @ j Z 1.s.a.v.t.%.( M F T / / g T V n J l s ~ g V / R n M U D K n - ",
"# . # - d D I L X.y.*.! S n d - [ z.e.*.y D z.=.^ K z > a j - ` ` v ) 9.1.{ ) ! Q c l / ) e V n c s V / 6.R g n V M c x m z 3 @ "
};
