/* XPM */
static char *bbe5903f041b4a05cdf71aef8ee73cc6INLNHm68L7Ifr8Dv[] = {
/* columns rows colors chars-per-pixel */
"64 64 216 2 ",
"   c #030101",
".  c #0A0401",
"X  c #0B0904",
"o  c #060509",
"O  c #09070A",
"+  c #0A090B",
"@  c #130902",
"#  c #120D0A",
"$  c #100600",
"%  c #0C100F",
"&  c #191106",
"*  c #15120A",
"=  c #1B140C",
"-  c #151006",
";  c #1B1613",
":  c #1E1A16",
">  c #1A1917",
",  c #211A0F",
"<  c #20130D",
"1  c #241B13",
"2  c #281D14",
"3  c #211D19",
"4  c #1E201D",
"5  c #26221A",
"6  c #2C241A",
"7  c #2D291E",
"8  c #262216",
"9  c #342A1E",
"0  c #3C2D1D",
"q  c #31271E",
"w  c #3F301D",
"e  c #292621",
"r  c #292926",
"t  c #352C23",
"y  c #3A2E23",
"u  c #332D29",
"i  c #3D3125",
"p  c #37312B",
"a  c #3C342B",
"s  c #39392F",
"d  c #333434",
"f  c #3D3A34",
"g  c #3B3836",
"h  c #41301C",
"j  c #423424",
"k  c #41352C",
"l  c #453A2C",
"z  c #4B3C2C",
"x  c #493926",
"c  c #423A34",
"v  c #4A3E32",
"b  c #433D3D",
"n  c #4F412D",
"m  c #52412F",
"M  c #4E4234",
"N  c #45413C",
"B  c #4D443A",
"V  c #4E493D",
"C  c #474435",
"Z  c #534535",
"A  c #54463A",
"S  c #55493B",
"D  c #5A4C3C",
"F  c #564935",
"G  c #5D503E",
"H  c #62523B",
"J  c #4E4940",
"K  c #4A4645",
"L  c #554C41",
"P  c #5B4E42",
"I  c #544B4B",
"U  c #5D5244",
"Y  c #5D544B",
"T  c #56524B",
"R  c #555353",
"E  c #5B595A",
"W  c #5E5A52",
"Q  c #625445",
"!  c #685745",
"~  c #665846",
"^  c #63564A",
"/  c #65594C",
"(  c #6A5C4D",
")  c #695947",
"_  c #705F4F",
"`  c #645C52",
"'  c #6B5E52",
"]  c #645F5B",
"[  c #695E5C",
"{  c #705C51",
"}  c #6F614E",
"|  c #72614D",
" . c #6E6253",
".. c #6E655A",
"X. c #67635C",
"o. c #736455",
"O. c #756956",
"+. c #7A6956",
"@. c #746659",
"#. c #78675C",
"$. c #756A5B",
"%. c #7A6C5D",
"&. c #786755",
"*. c #7D715E",
"=. c #6A6663",
"-. c #6C6965",
";. c #6B696A",
":. c #746B63",
">. c #7C6E62",
",. c #786D68",
"<. c #7E7163",
"1. c #75716A",
"2. c #7B746B",
"3. c #7E796D",
"4. c #6D6E72",
"5. c #7D7C7B",
"6. c #767571",
"7. c #806F5D",
"8. c #82725F",
"9. c #806F62",
"0. c #837465",
"q. c #897A65",
"w. c #84766A",
"e. c #86796B",
"r. c #8A7C6D",
"t. c #897766",
"y. c #927E6F",
"u. c #847D73",
"i. c #8C7E72",
"p. c #837E78",
"a. c #917F71",
"s. c #8D806E",
"d. c #92826E",
"f. c #8D8173",
"g. c #8D847A",
"h. c #938475",
"j. c #998775",
"k. c #948976",
"l. c #998A76",
"z. c #948679",
"x. c #9A877A",
"c. c #96897B",
"v. c #9B8C7C",
"b. c #9D917E",
"n. c #A08E7C",
"m. c #A2927E",
"M. c #A29177",
"N. c #8A8884",
"B. c #908780",
"V. c #958C82",
"C. c #9B8D81",
"Z. c #9D9182",
"A. c #9D9489",
"S. c #93928E",
"D. c #8D8E92",
"F. c #969595",
"G. c #A39484",
"H. c #A89786",
"J. c #A69886",
"K. c #AA9986",
"L. c #A4968A",
"P. c #A6998A",
"I. c #AB9C8C",
"U. c #A99789",
"Y. c #B19F8D",
"T. c #AA9D91",
"R. c #B29F91",
"E. c #AEA08E",
"W. c #A7A08E",
"Q. c #B2A28E",
"!. c #B4A58B",
"~. c #ADA192",
"^. c #B3A494",
"/. c #B8A796",
"(. c #B6A895",
"). c #BAAA95",
"_. c #B4A699",
"`. c #B6A99A",
"'. c #BBAC9B",
"]. c #BDB19E",
"[. c #A9A7A5",
"{. c #A4A5A6",
"}. c #BBAEA1",
"|. c #B5AEA6",
" X c #BEB2A3",
".X c #BFB1A8",
"XX c #B9BABA",
"oX c #B8B5B6",
"OX c #C1AF9F",
"+X c #C2B19B",
"@X c #C1AEA0",
"#X c #C4B4A3",
"$X c #C8B7A6",
"%X c #C7B8A5",
"&X c #C7BAAB",
"*X c #CBBCAC",
"=X c #C8B8A8",
"-X c #CBBFB1",
";X c #D0BFB5",
":X c #D3C1AE",
">X c #CCC2B1",
",X c #CEC4B8",
"<X c #D2C3B4",
"1X c #CBCDCE",
"2X c #C6C4C6",
"3X c #D9D8D8",
"4X c #E2DEDB",
"5X c #E6E2DF",
"6X c #DCDDE1",
"7X c #ECE8EC",
"8X c #F2EDF1",
"9X c #EDF1F0",
"0X c #F5F5F9",
"qX c #F8F7FB",
"wX c #FDFDFD",
"eX c #F4F5F7",
/* pixels */
"j.) z j C / .. .~.c.h.v.t.o.t.`.`.W.c.Z.0.0.v.z.f.2.Y X.1.W V s._.b.%.D (  .@.` / ` Y Y ' v @.' D ^.`.w.a.@.c v ^ {  .$.O.P k C.",
"K.).G.h.e.Y M  .L.k.v.a.0.D Z.J.c.v.C.k.h.o.<.>...:.2.V X - = / (.E.K.h.0.( ^ / L B B L ^ ' >.{ A i.C.@.[ ` Y { 9.,.D D / z y >.",
"h.K./.h.2.S v / k.r.r.d.) 0 ( f.g.0.0.r.&.D Q  .:.V.5 X     X = f.(.(.h.f.V.i.e. .U M X.r.C.i.w.o.Q @.>.w.i.w.#.i.v.r.%.9.{ A v ",
"j.r.s.f.>.c.|.0.^ %.o.t.v.v.F Z h.k.t.o.' r.t.z g.:..           i ~._.C.h.@.<.$...) r.J.2.&.e.0. .l #.z.w.>.>.' v o.P.I.L.x.[ L ",
"( t.O. .e.|.A.k.t.D r./.).Y.h.r.G e.t.o.h.^.&Xg.g.7       .       X.P.g.c.c.f.$.} ) L.P.k.s.<.o.%.F f.~.C.u.>.o.j s.>X*X`.^.w.P ",
"S t...%.T.L.V.f.%.+.K./.^.v.x.y.O.S ! r./._.#X_.T *           X . X y L 3.e.$.~ F i (.~.b.b.k.r.O.Q W._.C.r.%./ M ].<X#X}.`.z.A ",
"w / ' U Z.g.e.e.o.n.+XOXm.j.v.>.( x >.)./.^.^.P.V                 X X s ....2.G B G ].W.P.b.h.c.O.! ^.I.z.>.^ v s.].#X X#XZ.>.l ",
"M v.Z.h...2.e.r.o.U.*X^.Y.v.h.%./ D Q.).).U.v.c.t   .         o       3 -.c.X.} n %.^.G.c.k.c.0.o.F I.L.i.o.Q F >X'.'.(.~.h.>.j ",
"<.^.P.Z.A.e.Z ( ) @X$X/.G.h.0.o.} l.!.W.!.(.b.e.=         o           O # X.  . 1 #.'.P.v.f.k.<.Q n ( o.{ v 0 i.*X(.P.l.b.<.Q i ",
"f.~.~.L.g.$...t.%.=XOXv.j.0.O.) *.c.b.A.I.J.b.2.. .         o o   o       =.  . $ L V.U.C.i.h.o.F ) L.r.0.^ D v. XE.J.k.f.} G 9 ",
"r.b.I.f.%.*.v.f.j.'.H.j.h.<. .$.c.c.k.W.K.j.c.$.i     o       o o o o + o K >   . =.:.w.h.v.%.D 0.o.G.a.u.{ ( U.'.E.m.l.a.o.o.F ",
"O.t.h.<./ / h.%.I.$Xl.j.v.$.^ V.k.l.k.b.l.s.f.$.f . O           o   o       ;.  . c 2.Y e.%.) 0.r.%.h.a.9.o.( x.(.'.j.v.o.G._.0.",
"x o.%.+.o.<.r.( $XK.v.v.f. .<.e.<.u.k.c.h.s.*.X.V - ;     g r       O     R 3Xd   3 1.Y l F y.Y.v.h.d.G.w.9.P 9.H.H.j.l./.Z.x.#.",
"! v.Q.'.~.I.Z.o.=XK.v.h.o.B W ..$.<.s.f.h.r./ / Y N ;       ;.          o 1XwXD.X   5. .i j h.K.v.d.9.I.C.i.Q { h.0.0.^.G.v.r.Q ",
"*X#X'.'.h.*.r.j.'.H.v.r.C i V T ....$.O.$.O./ / 3.g.5 X     u ] .       d 9XwX2X:   1.X.<.'.m.M.8.t.o.h.x.a.>.) o._ #.Y._.C.9.w.",
"^.U.G.h.%.r.j.( m.v.o.j ) ..` Z l S ~ / } ~ U C g.B.g.+     . 4X7XS.s O E eXwX1Xe   N Y W.'.$X:X$XZ.Q %.C.y.0.( F r.9.#.G.z.{ r.",
"r.y.t.w.O.t.o.( i.$.S e.f.f.c.c.Z.I.Z.v.j.7.z D g.V.c.6     3 oXwXwXwXXXD.eXwX{.>   9 ..J.).!.+X$X/.v.( h.x.t.$.S U r.' o.:.#.A ",
"D o. .O.o.C ) ~.I.r.} t.r.0.0.c.k.G.G.L.#X*X%.o.Z.f.V.r .   =.XXwXwXwXwX6XXX4.r     : @.L.U.m.G.^.(.j.o.Q t.r.%.%.( $.i.A ' ..B ",
"o.F Z $.}.G.$.g.r.' i.T.f.r.k.k.v.I.R.T.#X<Xv.$.g.g.c.6   . N.|.wXwXqX[.d o +       1 U e.k.x.v.n.n.n.r.j D k.I.L.i.e.h.>.v ^ ^ ",
"} j D  X XL.h.>./ v o.>.r.k.f.h.v.C.a.c.v.(.P.Q ..f.s.6 . & 1.N.[.g.d   o o o       = v ..v.x.j.v.a.h.r.Q h.'._.I.<.$.T.>.v :.r.",
"S M C.~.-XG.C.g.P M o.o.%.>.#.u.9.i.a.L.z.z.w.l ..%.<.8   8 -.2.T             o   X * a :.#.i.x.x.a.&.%.! '.~.P.z.w.P 0.@.r.C.@.",
"v c.c.c.}.I.z.C.e.U ' %.#.@.' @.,.,.w.w.r.w.( D / Y X.-   f 2.:.s X         o     . p 2. XC.{ #.%.0.o.( P I.k.k.r.' 9.C.e.o.e.[ ",
"g.c.c.f.L.P.z.C.<.^ B S U Z S #.#.9.>.{ @.o.#.T._.~.$.    s :.R *       o o     .   c P..X<X| F o.+./ j j h.Z.h.0.>.Z.T.L.>.P { ",
">.C.z.e.P.L.r.>.o.S U i.c.f.i.,.{ { o.9.@.P ^ w.V.A.^ .   g ] 3                   . u.`.].+X!.| 0.r.b.Z.( t.h.k.f.t.}._.v.e.Q S ",
"A e.r.w.g.s.<.U Z i *.].#X.X.X&X;XC.( D *.b.k.>.:.u.= . . R [.K X                 t (.].(.).+XM.^.c.c.v.(. .k.c.h.k.#X_.U.i.#.A ",
"A L / @.%.} Z } D S z E._.L.P.T.R.R.>.x W.'._.~.c.:..   ; F.8X7X5.>   o            .c.b.!.!.+X!.e.Z.b.v.b.%.e.0.%.Z.}._.}.c.u. .",
"r.j j y l t.^.I.c.b.0.U P.i.C.c.k.b.j.Z ^.J.P.Z.c.:..   I 7XwXwXwX1X4   o       . Z.k.k.(.).).m.%.h.k.k.v.<.( *.S P.`.(./.G.a.9.",
"a.U j ( _.-X#X^.v.k.s./ #.C.c.x.v.d.v.o.h.f.k.h.g.^ . . R 2XeXeXwXwXeX5.d d : * X g.k.J.(.(.M.m.j.( f.Z.r.O.Z D i k./.I.G.U.x.r.",
"B.{ ( #X*XR./.).m.J.h.0.%.y.i.x.k.k.v.>.r.r.e.g.i.N   , b b E D.3XwXwXwXeX3XoXp . @.v.v.n.Y.M.n.c.<.$.f.e.%.Z  .D o.R.v.v.z.z.h.",
"i.^ D @X_./.K.Y.Q.m.v.j.) 0.Z.x.0.t.h.0.k.h.0.$.$.= . f g O   O e XXwXwXwXwX3X:   c @.i.j.U.n.j.v.s.Q *.%.( $.k.%.S r.n.x.t.0.t.",
"{ / ) U./.Y.j.n.Q.m.b.l.0.#.y.x.w.@.u.%.r.h.e. .U & X s g X       % wXeXqX0X2X. . u v >.v.x.a.C.h.f.Z ~ e.@.%.b.>.Z Z a.v.a.%.&.",
"{ a.i.y.R.G.n.y.k.j.d.r.9.( a.z.w.` >./ @.@./ L B @ , $.:.@         oX{.;.E K   ; w.w.( :.a.i.u.<.o.C *.k.~.k.Z.t.( j / x.h.t.P ",
"i.v.z.r.t.I.v.j.j.%.o.0.o.B @.w.<.^ / z v v P ,.Y X / 3...+ o       R X         r 2.V.h.) ' @.:.' &.^ %.r.k.f.Z.i.o. .P w.z.>.P ",
"C.v.h.9.o.t.G.j.H z z j G h.w.' L $...o.#.i.L.V.v - $.$.s.*   o o   6.          c B.z.f.i.9 v >.L.G.h.' U *.w.~.f.@.z.>.P w.^ w.",
"f.w.9.' v Z r._ 9.U.'.v.$.J.v.c.:.Z.Z.L.C.C.p.9.@ . C S N.r       o 5.X     @   , V.L.A.b.O.e.P.I.k.z.%.j n o.f.l i.c.e.( v v e.",
"@./ Q P h Q R./.$XOXJ.v.o.s.e.>.>.i.i.@.>.9.@.[ 3 1 * 7 X.f o o     -.u .         2.g.h.v.v.' 0.$.r.0.$.s.<.U z >.c.z.#.( P / :.",
"@.#.w.w.( o.U.'.$X'.U.v.D / *.o.^ Y P Q P v I ,.:.g     5 K     O   1.C . .   .   g :.o.0.r.{ w.%.0.v.r.h.0.U s.v.h.r.i.#.o.D D ",
"C.c.z.<.o.' t.U.*X/.R.y.F %.^.#XU.z.z.0.P :.c # .       . 3     . X W W *       . O ^ Y ) 9.x.z.f.o.f.k.0.%.0.(.L.z.b.h.r.%.j v.",
"'.T.z.9.#.) &.n.'.G.h.%.( n.^.(.G.y.&.o.C.A.@ .   .     .     .   @ r =.g           J %.v.z.y.a.t.U D $. .U O.(.W.v.h.j.v.7.o.`.",
"P.T.C.v.>.) ( h.v.v.t.%.( C.Z.j.h.o.%.H.L.Y   . : : 1 8 e 3     .   . * :     o     1.g.L.v.r.>./ ! e.0.( r.r.L.&XQ.^.n.h.r.h.$X",
"U.c.v.r.@.9.' F %.O.%.%.o.h.h.t.H z M.m.v.i & 1.=...W C f.6.4                 o     E V.f. .:.` ' i.b.v.h.%.t.v.G (.*X@Xv.h.).`.",
"L.C.x.9.e.a.Z y o.f.J.H.t.y.y.! _ ) !.m.k. .,.g.p.2...C W :.4     .             o   J u.$.S y `  .i.c.w.h.0.P >.e.*.G.<XOXY.Y.OX",
"a.r.j.v.C.0.>.^.T.h.h.v.%.P _ I.G.q.y.d.d.g.w.2.s...$.f.b.g.%     N a *     .     X e %./ D ` ..@.<.w.$.$.$.o.e.P.I.^.P.q.8.d.j.",
"#.{ @X_.Z.o.Q >.z.i.z.e.) S v.G.x.h.! z O.Q 0.v.A.>X>X].W.W.X     =.N.S 7 *     . . V Y Q [ ^ ^ ..<.$. .$.@.o.r.v.v.j.(.H.Q m 0.",
"q.q.(.K.k. .r.0.#.>.>.%./ v.x.x.h.g.O.n s.).OX'.@X#X'.^.T.Z.  .   1.3.V y 6 7 1 =  .G.s.s.0.@.B c v ` / ..:./ w.v.v.v.G.Q.G.&.I.",
"H.0.I.v.h.o.h.}.S @.o.P C.x.x.a.%./  .#X].).^./.Y.H.`.^.c.e.      T V y i O.}.<X-X$X!.j.k.m.f.w.P t y k v ^ #.@.r.y.x.j.j.j.y.H.",
"l.d.d.k.r. .g.L.e.S ^ S y.h.t.w.` L >.^.Y.n.x.y.n.j.k.c.g.g..     u.-Xr.} >X:X].@XY.Q.Y.M.Q.b.i.[ ^ k L L.L.i.Q ' %.t.h.0.t.v.l.",
"j.y.e.h.*.o.s.h.w.>.z.>.o.{ o.>.u.g.{ r.j.y.j.n.d.d.q.<.s.f..   . 2.}.#Xh.m.).]./.I.m.H.!.(.v.c.C.,.^ P C.C.9.Z Q r.G.#.H d.I.v.",
"j.*.r.$.D <.<.O./ W.&X(.r.| H.G.v.e.o.z ) r.x.r.7.&.&.%...:.# .   g.,X>XI.q.j.).G.P.L.k.v.v.C.z.C.i.>.' i.#.( n.$XOX$X+XH j.n.x.",
"f.0.%.<./ <. .i k.G.J.J.v.v.Y./.x.0.9._ G.Y.y.y._ ! G F S s =     f.}..XG.j.| 8.P.v.h.k.z.v.x.t.0.2.>.{ j ) U.;X$X!.+X+Xt.7.c.z.",
"v.@. ./ ( U <.z ^.G.h.v.h.j.n.n.C.i.( >.G.@X/.Y.!.E.J.J./ L a     2.V.b.j.d.7.H Q s.P.G.x.t.{ _ >.e.>.P 0 y.$X;X*X+XK.K.U.{ i.V.",
">.' / / L <.(.$.J.L.v.j.v.t.j.r.r.&.%.e.0.I.n.n.l.Q.^.E.C.w.` . - c.r.h.j.8._ 7.z h D r.h.t.n.Q.]. X^./ &.Y.).OX+X!.H.y.t.{ / o.",
"v ) v / z.Z.k.%.k.v.h.z.x.t.r.e.$.r.Z.L.y._ 0.0.b.E.^.W.k...2.  6 e.C.o.+.+._ H ! n.+X=X#X'.^.).I.v.v.%.U.^.n.n.Q.!.I.0.o.o.M k ",
">.^.@XT.U.Z.z.' z.f.h.C.x.x.@.@.@.<.z.z.I.G.7.&.O.q.J.h.r.~ ^ & 1 e.o.o.H x m q.).+X:X%X!.E.K.j.j.v.h.0.h.y.v.v.I.!.I.h.$.$.^ y ",
"#.L.a.Z.z.u.#.) @.<.z.c.z.c.^ S ^ u.>.u.c.I.U.U.d.| O.) O.} z.i 3 L.L.v.o.h l.).^.'.).^.K.l.d.l.k.k.o.0.h.v.v.h.j.l.j.r.%.@./ k ",
"/ G.x.a.z.@.&.Q ' i.x.a.V.x.' y ) `  .>.i.v.v.v.K.m.w +.} X.L., . z.L.z.v.| ).(.J.J.W.P.h.0.8.q.s.Q z o.0.h.j.x.%.8.*.<. .o.T y ",
"v z.a.i.0.&.o.F D f.C.z.z.w.Y y C U / ..0.g.h.h.v.H.8.`.T.@.T.i . 2.V.z.k.w.`.~.c.v.c.g.$. .U o.D o.o./ { %.9.t.O.| G Z F z 7 y ",
"k ` #.&.w.t.%.m z U o.o.' ' :.:.c.h.f.$./ %.t.0.t.).+Xb.h.>.L.q . Y V.g.>.) f.v.V.c.f.s...U U <.I.R.U.t.Z Z Q h.P.I. X XW.f.` a ",
"y P e.z.L.H.P.G.( h Z ( #.:.{ / $.3.f.b.<.Z.h.h.U.).^.b.h.z.>.1 . k p.f.<.Z D r.v.c.3...Y C Y Z.j.k.L.v./ k u.I.^.^.%X<X,X>X.X<.",
"j w.P.C.L.^.#X`.K.( h.(.$X'.x.w.~  .$.@. .C.H.9.h.E.k.v.<.c.%.@ . p #.' ) o.$.o.u.c.<.L l i } ~.v.v.z.z.a.D h.f.h.L.`.(.]..X*Xc.",
"k w.i.e.h.L.m.j.j.r.).`.'.R.C.e.O.h.W.>Xi.9.t.( D d.n.h.*.r.2.  . @ w.T.A.v.s.o.l <.c.e.:.Y >.k.k.f.c.g.$.U u.w.*.s.G.G.L.J.~.e.",
"p ` / >.f.f.r.d.d.H.OXm.Z.I.z.o./ *.*.b.a.#.a.z.%.0.j.e.<...P . . . _.'.(.Q.P.r.*.Z.Z.u.>.^ u.c.<.0.h.<.^ M w.f.v.<.t.h.h.k.c.D ",
"9 L Y ^ $.t.h.d.d.Q./.n.y.j.0.P ( h.C.%.i.%.R.n.v.t.e.( ^ Y y s @ 9 '.).OX).Y.l.<.0.i.z.z.' e.e.$.r.../ z.[ <.c.g.$.*.r.r.t.%.l ",
"a 9 a z / 0.d.d.K.).I.v.t.&.( z G.).`.U.Q w.'.I.v.e.o.n ^ ` B c.z.) h.).Q.m.m.j.h.%.$.z.c.Y <.%.O./ <.c.T.g./ $.<.*.$.&.#.o.F 0 "
};
